<svg width="56" height="56" viewBox="0 0 56 56" fill="none" xmlns="http://www.w3.org/2000/svg">
<g clip-path="url(#clip0_175_363)">
<path d="M51.4498 7.44629H4.54978C2.03842 7.44629 0 9.48515 0 11.9961V44.0037C0 46.515 2.03842 48.5539 4.54978 48.5539H51.4499C53.9523 48.5539 56.0001 46.515 56.0001 44.0037V11.9961C56 9.48515 53.9523 7.44629 51.4498 7.44629ZM12.5158 20.8418H8.92128C8.77811 20.8418 8.66195 20.7261 8.66195 20.5829V15.5247C8.66195 15.382 8.77767 15.2663 8.92084 15.2663H12.5157C12.6588 15.2663 12.775 15.382 12.775 15.5252V20.5829C12.7751 20.7259 12.6588 20.8418 12.5158 20.8418ZM8.92084 25.2121H12.5157C12.6588 25.2121 12.775 25.3278 12.775 25.471V30.5287C12.775 30.6719 12.6588 30.7876 12.5157 30.7876H8.92084C8.77811 30.7876 8.66195 30.6719 8.66195 30.5287V25.471C8.66195 25.3278 8.77778 25.2121 8.92084 25.2121ZM8.92084 35.1579H12.5157C12.6588 35.1579 12.775 35.2736 12.775 35.4168V40.4745C12.775 40.6176 12.6588 40.7338 12.5157 40.7338H8.92128C8.77811 40.7338 8.66195 40.6176 8.66195 40.4745V35.4163C8.66195 35.2737 8.77778 35.1579 8.92084 35.1579ZM23.6173 21.6633C23.6341 21.6117 23.6558 21.5633 23.6801 21.5168C23.7066 21.4672 23.7391 21.4224 23.7732 21.3788C23.8249 21.3134 23.883 21.2561 23.9489 21.2066C23.989 21.1762 24.0291 21.1464 24.0737 21.1224C24.1241 21.096 24.1762 21.0736 24.2309 21.0561C24.2861 21.0386 24.3437 21.0292 24.4027 21.0215C24.5988 20.9959 24.805 21.0241 24.9982 21.1356L35.4569 27.1738C36.0939 27.5412 36.0939 28.4607 35.4569 28.8286L24.9982 34.8668C24.8055 34.9783 24.5992 35.0062 24.4034 34.9809C24.3446 34.9732 24.286 34.9637 24.2304 34.9458C24.1761 34.9283 24.1235 34.9065 24.0735 34.8795C24.0291 34.8557 23.9889 34.8257 23.9488 34.7953C23.8829 34.7457 23.8248 34.689 23.7731 34.6236C23.739 34.5796 23.7065 34.5351 23.68 34.4855C23.6557 34.4389 23.6339 34.3904 23.6172 34.3391C23.5993 34.2856 23.5912 34.2284 23.583 34.1708C23.5771 34.1272 23.5651 34.0857 23.5651 34.0392V21.9628C23.5651 21.9166 23.5771 21.8751 23.583 21.8312C23.5912 21.774 23.5994 21.7168 23.6173 21.6633ZM47.0783 20.8418H43.4839C43.3407 20.8418 43.2246 20.7261 43.2246 20.5829V15.5247C43.2246 15.382 43.3403 15.2663 43.4835 15.2663H47.0783C47.2215 15.2663 47.3376 15.382 47.3376 15.5252V20.5829C47.3376 20.7259 47.2213 20.8418 47.0783 20.8418ZM43.4833 25.2121H47.0782C47.2213 25.2121 47.3375 25.3278 47.3375 25.471V30.5287C47.3375 30.6719 47.2213 30.7876 47.0782 30.7876H43.4833C43.3406 30.7876 43.2245 30.6719 43.2245 30.5287V25.471C43.2245 25.3278 43.3403 25.2121 43.4833 25.2121ZM43.4833 35.1579H47.0782C47.2213 35.1579 47.3375 35.2736 47.3375 35.4168V40.4745C47.3375 40.6176 47.2213 40.7338 47.0782 40.7338H43.4838C43.3406 40.7338 43.2245 40.6176 43.2245 40.4745V35.4163C43.2245 35.2737 43.3403 35.1579 43.4833 35.1579Z" fill="#10B981" fill-opacity="0.2"/>
</g>
<defs>
<clipPath id="clip0_175_363">
<rect width="56" height="56" fill="white"/>
</clipPath>
</defs>
</svg>
