<svg width="56" height="56" viewBox="0 0 56 56" fill="none" xmlns="http://www.w3.org/2000/svg">
<g clip-path="url(#clip0_175_328)">
<path d="M5.38114 32.9176C5.53842 33.644 5.74011 34.3532 5.95886 35.0529C6.01989 35.2452 5.97592 35.464 5.83614 35.6127L2.23103 39.3579L5.27603 44.6429L10.3338 43.4005C10.5349 43.3475 10.7448 43.4176 10.8848 43.5578C11.3749 44.109 11.8909 44.6251 12.4421 45.1241C12.5998 45.2643 12.6608 45.4744 12.6083 45.6752L11.3658 50.7244L16.6423 53.7775L20.3961 50.1723C20.5448 50.033 20.7546 49.98 20.9558 50.0416C21.656 50.2689 22.3649 50.4611 23.0907 50.6278C23.292 50.6714 23.4497 50.8201 23.5022 51.0123L24.955 56H31.0535L32.4972 51.0123C32.5588 50.82 32.7249 50.6714 32.9172 50.6278C33.6435 50.4611 34.3612 50.2689 35.0611 50.0416C35.2539 49.9801 35.4636 50.033 35.6123 50.1723L39.366 53.7775L44.6425 50.7244L43.4001 45.6752C43.3561 45.4744 43.4172 45.2642 43.5749 45.1241C44.1085 44.6251 44.6336 44.109 45.1322 43.5578C45.2723 43.4176 45.4825 43.3476 45.6748 43.4005L50.7325 44.6429L53.7775 39.3579L50.1814 35.6127C50.0411 35.4641 49.9886 35.2453 50.0498 35.0529C50.2775 34.3532 50.4698 33.644 50.6275 32.9176C50.671 32.7168 50.8198 32.5502 51.0124 32.498L56 31.054V24.9469L51.0123 23.5029C50.8196 23.4499 50.6709 23.2842 50.6274 23.0919C50.4697 22.3655 50.2775 21.6478 50.0497 20.9479C49.9886 20.7557 50.0411 20.5369 50.1812 20.3874L53.7774 16.643L50.7324 11.358L45.6747 12.6004C45.4824 12.6526 45.2722 12.5825 45.1321 12.4432C44.6335 11.8911 44.1084 11.375 43.5748 10.8769C43.4171 10.7367 43.356 10.535 43.4 10.3342L44.6424 5.27647L39.366 2.2225L35.6123 5.82772C35.4636 5.97636 35.2537 6.02 35.0611 5.95919C34.3614 5.73103 33.6435 5.53886 32.9172 5.38158C32.7249 5.32853 32.5588 5.1893 32.4972 4.98761L31.0535 0H24.955L23.5024 4.98772C23.4498 5.18941 23.2922 5.32864 23.0909 5.38169C22.3651 5.53897 21.6562 5.73114 20.956 5.9593C20.7548 6.02 20.545 5.97647 20.3964 5.82783L16.6425 2.2225L11.366 5.27647L12.6085 10.3342C12.661 10.535 12.6 10.7367 12.4423 10.8769C11.8911 11.375 11.375 11.8911 10.885 12.4432C10.7449 12.5825 10.5351 12.6525 10.334 12.6004L5.27625 11.358L2.23125 16.643L5.83636 20.3874C5.97614 20.5369 6.02011 20.7557 5.95908 20.9479C5.74033 21.6477 5.53864 22.3655 5.38136 23.0919C5.33783 23.2842 5.19761 23.45 4.99647 23.5029L0 24.9469V31.054L4.99625 32.498C5.19739 32.5502 5.33761 32.7168 5.38114 32.9176ZM17.6398 28C17.6398 22.2775 22.2775 17.6316 28.0086 17.6316C33.7401 17.6316 38.3775 22.2775 38.3775 28C38.3775 33.731 33.7402 38.3778 28.0086 38.3778C22.2775 38.3778 17.6398 33.731 17.6398 28Z" fill="#10B981"/>
<path d="M28 31.7622C30.0824 31.7622 31.7623 30.0823 31.7623 28C31.7623 25.9261 30.0824 24.2377 28 24.2377C25.9262 24.2377 24.2373 25.9262 24.2373 28C24.2373 30.0823 25.9262 31.7622 28 31.7622Z" fill="#10B981"/>
</g>
<defs>
<clipPath id="clip0_175_328">
<rect width="56" height="56" fill="white"/>
</clipPath>
</defs>
</svg>
