<svg width="56" height="56" viewBox="0 0 56 56" fill="none" xmlns="http://www.w3.org/2000/svg">
<g clip-path="url(#clip0_175_417)">
<path d="M27.5367 41.6248V27.9817L27.5482 19.1068L27.5367 19.1166V19.0933L16.0082 29.1399V41.569L16.0078 41.6069H16.0082V41.6248H27.5367Z" fill="#10B981"/>
<path d="M40.3068 41.6248V28.9792L34.1062 23.117L29.8881 19.1123V19.1288L29.8706 19.1123V41.5383L29.8701 41.607H29.8706V41.6248H40.3068Z" fill="#10B981"/>
<path d="M42.6406 28.7905V41.625H54.2071V26.8398L54.22 15.9328L54.2071 15.947V15.9211L42.6406 28.7905Z" fill="#10B981"/>
<path d="M16.0114 23.6288C18.1016 23.6288 19.8007 21.9101 19.8007 19.796C19.8007 19.1802 19.658 18.602 19.3948 18.0851L26.6195 11.796C27.236 12.2294 27.973 12.4806 28.7775 12.4806C29.5063 12.4806 30.1908 12.2675 30.7697 11.9023L38.1752 18.9062C37.8744 19.4538 37.709 20.0773 37.709 20.7389C37.709 22.853 39.4082 24.5717 41.4978 24.5717C43.588 24.5717 45.2871 22.853 45.2871 20.7389C45.2871 19.9554 45.0542 19.2182 44.6479 18.6097L52.3166 10.0851C52.8729 10.4195 53.5198 10.602 54.2038 10.602C56.294 10.602 58.0003 8.88332 58.0003 6.76962C58.0003 4.65558 56.2939 2.9292 54.2038 2.9292C52.1138 2.9292 50.4146 4.65569 50.4146 6.76962C50.4146 7.49955 50.6175 8.18413 50.9709 8.76184L43.2574 17.3474C42.731 17.0661 42.1372 16.9062 41.498 16.9062C40.7388 16.9062 40.0322 17.1343 39.4383 17.5224L32.0704 10.5489C32.3862 9.98619 32.5742 9.33236 32.5742 8.64004C32.5742 6.5259 30.8673 4.8077 28.7777 4.8077C26.6876 4.8077 24.9885 6.5259 24.9885 8.64004C24.9885 9.26366 25.1312 9.84923 25.402 10.3665L18.1846 16.6479C17.568 16.2144 16.8161 15.9556 16.0116 15.9556C13.9215 15.9556 12.2151 17.6821 12.2151 19.7961C12.2151 21.9101 13.9212 23.6288 16.0114 23.6288ZM52.1967 5.66685C52.2266 5.60601 52.2641 5.54494 52.3018 5.49184C52.3018 5.48454 52.3018 5.47668 52.3094 5.47668C52.7226 4.86091 53.422 4.44981 54.2038 4.44981C54.9934 4.44981 55.6924 4.8608 56.1059 5.47668C56.1136 5.47668 56.1136 5.48442 56.1136 5.49184C56.1511 5.54494 56.1887 5.6059 56.2187 5.66685C56.399 5.9941 56.4967 6.37389 56.4967 6.76973C56.4967 8.03943 55.4667 9.08123 54.2037 9.08123C52.9481 9.08123 51.918 8.03932 51.918 6.76973C51.918 6.37389 52.0159 5.99399 52.1967 5.66685ZM41.4979 18.4274C42.7613 18.4274 43.7836 19.4616 43.7836 20.7389C43.7836 22.0163 42.7613 23.0504 41.4979 23.0504C40.2427 23.0504 39.2126 22.0163 39.2126 20.7389C39.2125 19.4616 40.2427 18.4274 41.4979 18.4274ZM28.1234 6.41969C28.1831 6.40454 28.2435 6.38938 28.3113 6.37389C28.3711 6.36659 28.439 6.35143 28.4989 6.35143C28.5894 6.33583 28.6796 6.32853 28.7773 6.32853C29.8148 6.32853 30.7017 7.0359 30.9725 7.99396C31.0173 8.12318 31.0478 8.25969 31.055 8.40451C31.0626 8.48051 31.0703 8.56404 31.0703 8.64004C31.0703 9.91793 30.0402 10.9594 28.7772 10.9594C27.5216 10.9594 26.4915 9.91793 26.4915 8.64004C26.4917 7.59857 27.1762 6.70877 28.1234 6.41969ZM16.0114 17.4766C17.2671 17.4766 18.2971 18.5185 18.2971 19.796C18.2971 21.066 17.267 22.1075 16.0114 22.1075C14.7484 22.1075 13.7183 21.066 13.7183 19.796C13.7183 18.5185 14.7483 17.4766 16.0114 17.4766Z" fill="#10B981"/>
<path d="M9.89819 48.0114V0H4.95454V4.29466V48.0114V52.9639L4.9541 52.9941H4.95454V53.0118V53.0122H7.4262L9.89819 53.0295L9.46146 53.0122H9.89819L9.46069 53.0118H9.45982L57.3649 53.0122V48.0114H9.89819Z" fill="#10B981"/>
<path d="M50.8856 53.0177H50.8677L50.8681 55.9995L53.1188 56L53.1184 53.0181L50.8856 53.0177Z" fill="#10B981"/>
<path d="M13.0691 53.0303V53.0126H10.8363H10.8184L10.8188 55.9939L13.0695 55.9944L13.0691 53.0393V53.0303Z" fill="#10B981"/>
<path d="M26.4189 53.0324V53.0147L24.1862 53.0143H24.1682L24.1685 55.996H26.4194L26.4189 53.0501V53.0324Z" fill="#10B981"/>
<path d="M39.7687 53.0338V53.016H37.5358H37.5178L37.5183 55.9974L39.7691 55.9978L39.7687 53.0428V53.0338Z" fill="#10B981"/>
<path d="M2.00044 44.8039L2 47.0806L4.94799 47.0801L4.94843 44.8217V44.8213V44.8035L2.00044 44.8039Z" fill="#10B981"/>
<path d="M2.0061 6.57178L4.9542 6.57134L4.95464 4.29468L2.00654 4.29512L2.0061 6.57178Z" fill="#10B981"/>
<path d="M2.00439 20.0745L4.95195 20.074L4.95239 17.7976L2.00439 17.798V20.0745Z" fill="#10B981"/>
<path d="M2.00263 31.301L2.0022 33.5775L4.9503 33.5771L4.95074 31.3187V31.3182V31.3005L2.00263 31.301Z" fill="#10B981"/>
</g>
<defs>
<clipPath id="clip0_175_417">
<rect width="56" height="56" fill="white"/>
</clipPath>
</defs>
</svg>
