<svg width="56" height="56" viewBox="0 0 56 56" fill="none" xmlns="http://www.w3.org/2000/svg">
<path d="M8.24999 30.174H8.24146V52.0948C8.24146 54.2545 9.98708 56 12.1468 56H46.2874C48.4472 56 50.1931 54.2545 50.1931 52.0948V30.174H8.50592H8.24999ZM26.0758 38.1319C26.0892 38.0883 26.1071 38.0469 26.1289 38.0084C26.1383 37.9913 26.1497 37.9763 26.1609 37.96C26.2092 37.8904 26.2694 37.831 26.34 37.7861C26.3494 37.7797 26.3579 37.7728 26.3682 37.7669C26.4091 37.7438 26.4527 37.725 26.498 37.7113C26.513 37.707 26.5288 37.7054 26.5442 37.7019C26.6087 37.6877 26.6757 37.6856 26.7437 37.6929C26.8069 37.6997 26.8685 37.7165 26.9274 37.7426C26.9487 37.752 26.9709 37.7571 26.9919 37.7691L33.8938 41.7555C34.3075 41.9982 34.3075 42.6011 33.8938 42.8443L26.9919 46.8302C26.9709 46.8427 26.9492 46.8473 26.9278 46.8567C26.868 46.8827 26.8069 46.8994 26.7432 46.9067C26.6762 46.9135 26.6104 46.9114 26.5462 46.8977C26.5299 46.8939 26.5133 46.8926 26.4975 46.8874C26.4526 46.8742 26.409 46.8558 26.3684 46.8327C26.3577 46.8268 26.3484 46.8186 26.3381 46.8123C26.2684 46.7674 26.209 46.7088 26.1611 46.6397C26.15 46.6234 26.138 46.608 26.1282 46.5909C26.1069 46.5525 26.0889 46.5111 26.0756 46.4674C26.0701 46.4495 26.0684 46.4302 26.064 46.4119C26.0555 46.3695 26.0465 46.3272 26.0465 46.2815V38.3177C26.0465 38.272 26.0555 38.2296 26.064 38.1873C26.0686 38.169 26.0703 38.1498 26.0758 38.1319Z" fill="#10B981"/>
<path d="M51.8186 22.2336H46.969L44.7807 22.2297L44.7828 22.2336H44.7729L48.7426 30.1731H51.8185C52.3979 30.1731 52.8675 29.7034 52.8675 29.124V23.2827C52.8676 22.7032 52.3979 22.2336 51.8186 22.2336Z" fill="#10B981"/>
<path d="M34.0956 30.1732H42.3091L38.3389 22.2336H32.6846L30.1336 22.2297L30.1353 22.2336H30.1255L34.0956 30.1732Z" fill="#10B981"/>
<path d="M19.4392 30.1732H27.6526L23.6824 22.2336H18.0281L15.4767 22.2297L15.4788 22.2336H15.469L19.4392 30.1732Z" fill="#10B981"/>
<path d="M9.0352 22.2335H6.61615C6.03669 22.2335 5.56714 22.7032 5.56714 23.2826V29.1239C5.56714 29.7034 6.03679 30.1731 6.61615 30.1731H13.005L9.0352 22.2335Z" fill="#10B981"/>
<path d="M46.3118 8.53223L49.1676 7.58187C49.7521 7.38741 50.0679 6.75631 49.8735 6.17214L48.0707 0.75425C48.0485 0.686656 48.0022 0.636344 47.9685 0.575969C47.9416 0.527187 47.9198 0.475125 47.886 0.431484C47.8395 0.371766 47.7852 0.324734 47.7283 0.275953C47.6877 0.240844 47.6485 0.208359 47.6035 0.179812C47.5403 0.139672 47.4774 0.107187 47.4077 0.0802813C47.3598 0.0614687 47.3104 0.05075 47.2599 0.0388281C47.1839 0.0213281 47.1112 0.00426563 47.0322 0.00295312C47.0254 0.00251562 47.0198 0 47.013 0C46.9673 0 46.9237 0.0162969 46.8784 0.0217656C46.8057 0.0307344 46.7331 0.0242813 46.6609 0.0482344L42.0758 1.57412L40.0439 2.24591L40.0472 2.24886L40.0378 2.25192L46.3118 8.53223Z" fill="#10B981"/>
<path d="M32.4133 13.157L37.8077 11.3619L40.2002 10.5701L40.1972 10.5667L40.2066 10.5636L33.9332 4.28333L28.5388 6.07806L26.1458 6.87026L26.1488 6.87333L26.1399 6.87683L32.4133 13.157Z" fill="#10B981"/>
<path d="M18.5063 17.7839L23.8794 15.9961L26.2937 15.197L26.2903 15.194L26.2997 15.1911L20.0263 8.91077L14.6545 10.6983L12.2394 11.4977L12.2424 11.5008L12.2329 11.5042L18.5063 17.7839Z" fill="#10B981"/>
<path d="M5.33472 21.5844C5.3753 21.6191 5.415 21.652 5.45952 21.6806C5.52273 21.7203 5.58562 21.7528 5.6553 21.7797C5.7032 21.7985 5.75264 21.8096 5.80361 21.8211C5.87919 21.8386 5.95181 21.8557 6.03045 21.857C6.03723 21.8574 6.04325 21.8604 6.05003 21.8604C6.09619 21.8604 6.14027 21.8441 6.18587 21.8382C6.25817 21.8292 6.33036 21.8357 6.40211 21.8117L10.548 20.4324L12.3958 19.8218L12.3924 19.8188L12.4018 19.8154L6.12834 13.5356L3.89556 14.2783C3.31106 14.4728 2.9953 15.104 3.18966 15.688L4.99237 21.106C5.01502 21.174 5.06128 21.2248 5.09497 21.2851C5.12187 21.3338 5.14364 21.3851 5.177 21.4287C5.22359 21.4887 5.27795 21.5357 5.33472 21.5844Z" fill="#10B981"/>
</svg>
