<svg width="56" height="56" viewBox="0 0 56 56" fill="none" xmlns="http://www.w3.org/2000/svg">
<path d="M43.7747 20.2128C41.5966 20.2128 39.8308 21.9786 39.8308 24.1563C39.8308 26.3344 41.5967 28.1001 43.7747 28.1001C45.9527 28.1001 47.7182 26.3343 47.7182 24.1563C47.7183 21.9786 45.9529 20.2128 43.7747 20.2128Z" fill="#10B981"/>
<path d="M49.8844 11.3175H37.5011L37.1614 9.47779C36.6073 6.48158 33.9938 4.30676 30.9475 4.30676H14.6362C11.5883 4.30676 8.97477 6.48179 8.42275 9.47823L8.08216 11.3175H6.11559C2.74378 11.3175 0 14.0613 0 17.4339V45.5776C0 48.9494 2.74378 51.6931 6.11559 51.6931H49.8843C53.2562 51.6931 55.9999 48.9494 55.9999 45.5776V17.4339C56 14.0613 53.2562 11.3175 49.8844 11.3175ZM50.4786 45.5776C50.4786 45.9052 50.2124 46.1723 49.8843 46.1723H6.11559C5.78747 46.1723 5.52081 45.9052 5.52081 45.5776V17.4339C5.52081 17.1058 5.78747 16.8388 6.11559 16.8388H12.6772L13.8521 10.4801C13.9214 10.1019 14.2511 9.82812 14.6361 9.82812H30.9477C31.3321 9.82812 31.6623 10.1028 31.7324 10.4805L32.9056 16.8388H49.8843C50.2124 16.8388 50.4786 17.1058 50.4786 17.4339V45.5776Z" fill="#10B981"/>
<path d="M25.4959 19.7684C19.3554 19.7684 14.3596 24.7642 14.3596 30.9047C14.3596 37.045 19.3554 42.0408 25.4959 42.0408C31.6363 42.0408 36.632 37.045 36.632 30.9047C36.632 24.7642 31.6362 19.7684 25.4959 19.7684ZM25.4959 36.5199C22.3996 36.5199 19.8805 34.0004 19.8805 30.9047C19.8805 27.8084 22.3996 25.2894 25.4959 25.2894C28.5921 25.2894 31.1112 27.8084 31.1112 30.9047C31.1112 34.0004 28.592 36.5199 25.4959 36.5199Z" fill="#10B981"/>
</svg>
