<svg width="56" height="56" viewBox="0 0 56 56" fill="none" xmlns="http://www.w3.org/2000/svg">
<g clip-path="url(#clip0_175_403)">
<path d="M54.6299 7.2426L53.2076 8.66917L45.5509 16.3497L41.334 14.7172L39.7062 10.4858L48.7895 1.37299L46.883 0.723627C45.4735 0.24183 44.0008 1.73353e-06 42.5298 1.73353e-06C39.0875 -0.00174827 35.6345 1.32147 33.0061 3.96014C30.3786 6.59499 29.0614 10.0591 29.0635 13.5108C29.0635 15.3188 29.4467 17.121 30.1684 18.8138L14.875 34.1541C13.7116 33.7606 12.4996 33.5534 11.2844 33.5534C8.40143 33.5525 5.50419 34.6574 3.30258 36.8667C1.10316 39.072 -0.0020752 41.9753 2.92507e-06 44.868C-0.0020752 47.7593 1.10316 50.6611 3.30258 52.8678C4.32928 53.8975 5.51141 54.693 6.77349 55.2398L8.52567 55.9996V45.1013L11.2784 43.5073L14.0311 45.1013V56L15.7833 55.2398C17.0453 54.693 18.2275 53.8975 19.2542 52.8678C21.4515 50.6633 22.5581 47.7619 22.5559 44.8714C22.5559 43.6504 22.35 42.4302 21.9577 41.2595L37.2506 25.9179C38.9387 26.6413 40.7356 27.0246 42.5381 27.0246C45.9805 27.0267 49.4318 25.7036 52.0559 23.0704C54.6835 20.436 56.0015 16.9718 55.9998 13.5189C55.9998 12.0427 55.7597 10.5657 55.2794 9.15239L54.6299 7.2426Z" fill="#10B981" fill-opacity="0.2"/>
</g>
<defs>
<clipPath id="clip0_175_403">
<rect width="56" height="56" fill="white"/>
</clipPath>
</defs>
</svg>
