<svg width="56" height="56" viewBox="0 0 56 56" fill="none" xmlns="http://www.w3.org/2000/svg">
<g clip-path="url(#clip0_175_305)">
<path d="M7.25676 19.3351V19.3355H7.23926V34.2698H48.7521V19.3355H7.38319L7.25676 19.3351ZM13.8611 24.4573C13.8611 23.1397 14.9301 22.0702 16.2481 22.0702C17.5657 22.0702 18.6266 23.1397 18.6266 24.4573C18.6266 25.7669 17.5658 26.8358 16.2481 26.8358C14.9301 26.8357 13.8611 25.7668 13.8611 24.4573ZM27.4544 30.7301L27.4591 30.7229L27.4694 30.7392L32.6907 22.3189C33.5029 21.018 35.5331 21.018 36.3454 22.3189L40.5188 29.0468L42.7247 32.6208H28.6378L28.6544 32.6455H22.3954L19.1624 32.6361L22.0659 27.9629C22.8862 26.6534 24.9251 26.6534 25.7458 27.9629L26.9315 29.8727L27.4544 30.7301Z" fill="#10B981"/>
<path d="M53.9154 56C54.7028 56 55.3406 55.3621 55.3493 54.5743V0H0.650635V54.5743C0.650635 55.3621 1.28851 56 2.0759 56H53.9154ZM5.2714 4.14422C5.28463 4.08745 5.30049 4.03058 5.32478 3.97852C5.32478 3.96998 5.32478 3.96998 5.32478 3.96178C5.49059 3.57219 5.88018 3.29875 6.32753 3.29875C6.77531 3.29875 7.15637 3.57219 7.32218 3.96178C7.32218 3.96988 7.32218 3.96988 7.32218 3.97852C7.34395 4.02511 7.35685 4.07586 7.36965 4.12672C7.37818 4.15877 7.38507 4.19212 7.3901 4.22625C7.39776 4.27831 7.40509 4.33092 7.40509 4.3843C7.40509 4.98127 6.92449 5.46186 6.32763 5.46186C5.73121 5.46186 5.24198 4.98127 5.24198 4.3843C5.24198 4.32666 5.2492 4.26945 5.25817 4.21258C5.26145 4.18961 5.26615 4.16697 5.2714 4.14422ZM10.012 4.14378C10.0254 4.08702 10.0407 4.03058 10.0655 3.97852C10.0655 3.96998 10.0655 3.96998 10.0655 3.96178C10.2312 3.57219 10.6124 3.29875 11.0597 3.29875C11.5075 3.29875 11.8886 3.57219 12.0544 3.96178C12.0544 3.96988 12.0544 3.96988 12.0544 3.97852C12.0762 4.02511 12.0891 4.07586 12.1023 4.12672C12.1104 4.15877 12.1173 4.19169 12.1224 4.22581C12.1301 4.27831 12.1373 4.33092 12.1373 4.3843C12.1373 4.98127 11.6567 5.46186 11.0599 5.46186C10.4634 5.46186 9.98273 4.98127 9.98273 4.3843C9.98273 4.32666 9.98995 4.26989 9.99859 4.21302C10.0022 4.19005 10.0069 4.16697 10.012 4.14378ZM14.7442 4.14422C14.7575 4.08745 14.7732 4.03058 14.7976 3.97852C14.7976 3.96998 14.7976 3.96998 14.7976 3.96178C14.9633 3.57219 15.3445 3.29875 15.7923 3.29875C16.2396 3.29875 16.6207 3.57219 16.7865 3.96178C16.7865 3.96988 16.7865 3.96988 16.7865 3.97852C16.8446 4.10288 16.8694 4.24342 16.8694 4.3843C16.8694 4.98127 16.3888 5.46186 15.7924 5.46186C15.1955 5.46186 14.7148 4.98127 14.7148 4.3843C14.7148 4.32666 14.7221 4.26945 14.7311 4.21258C14.7344 4.18961 14.7391 4.16697 14.7442 4.14422ZM2.30788 54.3428V8.4373H53.6916V54.3428H2.30788Z" fill="#10B981"/>
<path d="M41.3929 38.4467H7.23926V40.7093H41.3929V38.4467Z" fill="#10B981"/>
<path d="M36.5445 43.7175H7.23926V45.9806H36.5445V43.7175Z" fill="#10B981"/>
<path d="M42.7352 15.4236C43.7132 15.4236 44.5086 14.628 44.5086 13.6501C44.5086 12.6721 43.7131 11.8762 42.7352 11.8762C41.7572 11.8762 40.9617 12.6721 40.9617 13.6501C40.9617 14.628 41.7572 15.4236 42.7352 15.4236Z" fill="#10B981"/>
<path d="M48.8432 11.8761C47.8653 11.8761 47.0698 12.672 47.0698 13.6499C47.0698 14.6279 47.8654 15.4235 48.8432 15.4235C49.8213 15.4235 50.6167 14.6279 50.6167 13.6499C50.6167 12.672 49.8213 11.8761 48.8432 11.8761Z" fill="#10B981"/>
<path d="M16.0157 11.8761H7.23926V14.8266H16.0157V11.8761Z" fill="#10B981"/>
</g>
<defs>
<clipPath id="clip0_175_305">
<rect width="56" height="56" fill="white"/>
</clipPath>
</defs>
</svg>
