<svg width="800" height="561" viewBox="0 0 800 561" fill="none" xmlns="http://www.w3.org/2000/svg">
<g id="about-animation" clip-path="url(#clip0_155_34)">
<path id="Vector" d="M481.586 560.704H0V3.43994L481.586 153.076V560.704Z" fill="#F2F2F2"/>
<path id="Vector_2" d="M423.219 363.77H44.8301V540.065H423.219V363.77Z" fill="#115E59"/>
<path id="Vector_3" d="M341.272 330.789C370.332 330.789 393.89 307.231 393.89 278.17C393.89 249.11 370.332 225.552 341.272 225.552C312.211 225.552 288.653 249.11 288.653 278.17C288.653 307.231 312.211 330.789 341.272 330.789Z" fill="#10B981"/>
<path id="Vector_4" d="M340.795 373.327L341.226 277.881" stroke="#115E59" stroke-width="2" stroke-miterlimit="10"/>
<path id="Vector_5" d="M341.226 291.378C348.681 291.378 354.724 285.335 354.724 277.881C354.724 270.426 348.681 264.383 341.226 264.383C333.772 264.383 327.729 270.426 327.729 277.881C327.729 285.335 333.772 291.378 341.226 291.378Z" fill="#115E59"/>
<path id="Vector_6" d="M340.96 336.706C340.96 336.706 339.22 295.226 299.669 299.868L340.96 336.706Z" fill="#115E59"/>
<path id="Vector_7" d="M120.847 225.147C149.907 225.147 173.465 201.589 173.465 172.529C173.465 143.469 149.907 119.911 120.847 119.911C91.7865 119.911 68.2285 143.469 68.2285 172.529C68.2285 201.589 91.7865 225.147 120.847 225.147Z" fill="#10B981"/>
<path id="Vector_8" d="M117.867 366.782L120.896 172.471" stroke="#115E59" stroke-width="2" stroke-miterlimit="10"/>
<path id="Vector_9" d="M120.896 185.968C128.35 185.968 134.393 179.925 134.393 172.471C134.393 165.016 128.35 158.973 120.896 158.973C113.441 158.973 107.398 165.016 107.398 172.471C107.398 179.925 113.441 185.968 120.896 185.968Z" fill="#115E59"/>
<path id="Vector_10" d="M120.039 227.434C120.039 227.434 118.758 185.937 79.1584 190.141L120.039 227.434Z" fill="#115E59"/>
<path id="Vector_11" d="M117.925 363.072C117.925 363.072 127.844 283.466 77.7761 278.828" stroke="#115E59" stroke-width="2" stroke-miterlimit="10"/>
<path id="Vector_12" d="M77.7762 292.326C85.2307 292.326 91.2738 286.283 91.2738 278.829C91.2738 271.374 85.2307 265.331 77.7762 265.331C70.3217 265.331 64.2786 271.374 64.2786 278.829C64.2786 286.283 70.3217 292.326 77.7762 292.326Z" fill="#115E59"/>
<path id="Vector_13" d="M234.002 108.332C263.062 108.332 286.62 84.774 286.62 55.7137C286.62 26.6535 263.062 3.09546 234.002 3.09546C204.942 3.09546 181.384 26.6535 181.384 55.7137C181.384 84.774 204.942 108.332 234.002 108.332Z" fill="#10B981"/>
<path id="Vector_14" d="M234.035 374.275V55.9071" stroke="#115E59" stroke-width="2" stroke-miterlimit="10"/>
<path id="Vector_15" d="M234.035 69.2538C241.49 69.2538 247.533 63.2107 247.533 55.7562C247.533 48.3016 241.49 42.2585 234.035 42.2585C226.58 42.2585 220.537 48.3016 220.537 55.7562C220.537 63.2107 226.58 69.2538 234.035 69.2538Z" fill="#115E59"/>
<path id="Vector_16" d="M192.578 299.595C200.032 299.595 206.076 293.552 206.076 286.097C206.076 278.643 200.032 272.599 192.578 272.599C185.123 272.599 179.08 278.643 179.08 286.097C179.08 293.552 185.123 299.595 192.578 299.595Z" fill="#115E59"/>
<path id="Vector_17" d="M234.035 124.703C234.035 124.703 232.107 83.2306 192.578 88.0511L234.035 124.703Z" fill="#115E59"/>
<path id="Vector_18" d="M234.035 242.272C234.035 242.272 232.107 200.8 192.578 205.62L234.035 242.272Z" fill="#115E59"/>
<path id="Vector_19" d="M234.035 370.565C234.035 370.565 242.712 289.954 192.578 286.097" stroke="#115E59" stroke-width="2" stroke-miterlimit="10"/>
<path id="Vector_20" d="M276.32 172.982C283.775 172.982 289.818 166.939 289.818 159.484C289.818 152.03 283.775 145.987 276.32 145.987C268.866 145.987 262.823 152.03 262.823 159.484C262.823 166.939 268.866 172.982 276.32 172.982Z" fill="#115E59"/>
<path id="Vector_21" d="M234.863 239.652C234.863 239.652 226.186 163.341 276.32 159.484" stroke="#115E59" stroke-width="2" stroke-miterlimit="10"/>
<path id="Vector_22" d="M346.57 128.996C342.828 128.996 339.171 127.887 336.059 125.808C332.948 123.729 330.523 120.774 329.091 117.317C327.659 113.86 327.284 110.056 328.014 106.386C328.744 102.716 330.546 99.3448 333.192 96.6989C335.838 94.0529 339.209 92.251 342.879 91.521C346.549 90.791 350.353 91.1657 353.811 92.5976C357.268 94.0296 360.222 96.4546 362.301 99.5658C364.38 102.677 365.49 106.335 365.49 110.077C365.484 115.093 363.489 119.902 359.942 123.449C356.395 126.996 351.586 128.991 346.57 128.996ZM346.57 92.8774C343.169 92.8774 339.843 93.8862 337.015 95.7761C334.186 97.666 331.982 100.352 330.68 103.495C329.378 106.638 329.038 110.096 329.701 113.432C330.365 116.769 332.003 119.833 334.408 122.239C336.814 124.644 339.879 126.282 343.215 126.946C346.551 127.61 350.01 127.269 353.152 125.967C356.295 124.665 358.981 122.461 360.871 119.632C362.761 116.804 363.77 113.479 363.77 110.077C363.765 105.517 361.951 101.145 358.726 97.9208C355.502 94.6964 351.13 92.8826 346.57 92.8774Z" fill="#115E59"/>
<path id="Vector_23" d="M49.0186 37.839C45.2767 37.839 41.6188 36.7293 38.5075 34.6504C35.3962 32.5715 32.9713 29.6167 31.5393 26.1596C30.1073 22.7026 29.7327 18.8985 30.4627 15.2285C31.1927 11.5585 32.9946 8.18733 35.6405 5.54139C38.2865 2.89546 41.6576 1.09355 45.3276 0.36354C48.9976 -0.366472 52.8017 0.00819993 56.2588 1.44017C59.7158 2.87214 62.6707 5.29709 64.7496 8.40838C66.8285 11.5197 67.9381 15.1776 67.9381 18.9195C67.9324 23.9355 65.9373 28.7444 62.3904 32.2913C58.8436 35.8382 54.0346 37.8333 49.0186 37.839ZM49.0186 1.71996C45.6169 1.71996 42.2915 2.72869 39.4631 4.6186C36.6346 6.50851 34.4301 9.19471 33.1283 12.3375C31.8265 15.4803 31.4859 18.9386 32.1496 22.2749C32.8132 25.6113 34.4513 28.676 36.8567 31.0814C39.2621 33.4868 42.3268 35.1249 45.6631 35.7885C48.9995 36.4522 52.4578 36.1115 55.6006 34.8098C58.7434 33.508 61.4296 31.3035 63.3195 28.475C65.2094 25.6466 66.2181 22.3212 66.2181 18.9195C66.2129 14.3595 64.3991 9.98775 61.1747 6.76334C57.9503 3.53894 53.5786 1.72518 49.0186 1.71996Z" fill="#115E59"/>
<path id="Vector_24" d="M481.586 318.191C477.845 318.191 474.187 317.082 471.075 315.003C467.964 312.924 465.539 309.969 464.107 306.512C462.675 303.055 462.301 299.251 463.031 295.581C463.761 291.911 465.562 288.54 468.208 285.894C470.854 283.248 474.225 281.446 477.895 280.716C481.565 279.986 485.37 280.36 488.827 281.792C492.284 283.224 495.239 285.649 497.317 288.761C499.396 291.872 500.506 295.53 500.506 299.272C500.5 304.288 498.505 309.097 494.958 312.643C491.411 316.19 486.602 318.185 481.586 318.191ZM481.586 282.072C478.185 282.072 474.859 283.081 472.031 284.971C469.203 286.861 466.998 289.547 465.696 292.69C464.394 295.832 464.054 299.291 464.717 302.627C465.381 305.963 467.019 309.028 469.425 311.434C471.83 313.839 474.895 315.477 478.231 316.141C481.567 316.804 485.026 316.464 488.168 315.162C491.311 313.86 493.997 311.656 495.887 308.827C497.777 305.999 498.786 302.673 498.786 299.272C498.781 294.712 496.967 290.34 493.743 287.116C490.518 283.891 486.146 282.077 481.586 282.072Z" fill="#115E59"/>
<path id="Vector_25" d="M401.609 170.275C407.783 170.275 412.788 165.27 412.788 159.096C412.788 152.921 407.783 147.916 401.609 147.916C395.434 147.916 390.429 152.921 390.429 159.096C390.429 165.27 395.434 170.275 401.609 170.275Z" fill="#115E59"/>
<path id="Vector_26" d="M489.326 374.089C495.501 374.089 500.506 369.084 500.506 362.91C500.506 356.735 495.501 351.73 489.326 351.73C483.152 351.73 478.146 356.735 478.146 362.91C478.146 369.084 483.152 374.089 489.326 374.089Z" fill="#115E59"/>
<path id="Vector_27" d="M481.586 560.704V363.77H401.609C401.609 455.91 326.914 530.605 234.773 530.605C142.633 530.605 67.9381 455.91 67.9381 363.77H0V560.704H481.586Z" fill="#115E59"/>
<path id="Vector_28" d="M234.773 530.605C326.914 530.605 401.609 455.91 401.609 363.77H67.938C67.938 455.91 142.633 530.605 234.773 530.605Z" fill="#10B981"/>
<path id="Vector_29" d="M708.434 433.906C790.654 392.317 823.592 291.949 782.002 209.729L484.256 360.338C525.845 442.559 626.213 475.496 708.434 433.906Z" fill="#115E59"/>
<path id="Vector_30" d="M714.464 123.409C715.019 123.033 715.554 122.631 716.075 122.211C714.99 125.46 713.241 128.447 710.94 130.983C710.401 131.576 709.827 132.131 709.236 132.668C709.224 132.532 709.211 132.396 709.204 132.26C709.135 130.944 709.231 129.56 709.249 128.205C711.3 126.983 713.076 125.35 714.464 123.409Z" fill="url(#paint0_linear_155_34)"/>
<path id="Vector_31" d="M722.533 75.4292C723.784 73.3198 724.506 70.9385 724.636 68.4892C724.766 66.0399 724.3 63.5956 723.279 61.3655C722.258 59.1355 720.712 57.1861 718.772 55.6844C716.833 54.1826 714.559 53.1732 712.144 52.7426C709.73 52.312 707.247 52.4729 704.908 53.2117C702.569 53.9505 700.444 55.2452 698.715 56.9847C696.986 58.7243 695.704 60.857 694.979 63.2003C694.255 65.5435 694.109 68.0275 694.554 70.4395C690.214 72.5062 686.583 75.81 684.116 79.9354C681.649 84.0608 680.458 88.8235 680.691 93.6244C678.618 96.8068 677.316 100.429 676.89 104.203C676.464 107.977 676.924 111.799 678.235 115.364C679.546 118.928 681.671 122.138 684.441 124.737C687.211 127.335 690.549 129.252 694.19 130.333C697.831 131.414 701.674 131.63 705.413 130.964C709.152 130.299 712.685 128.769 715.728 126.497C718.772 124.226 721.244 121.275 722.947 117.88C724.649 114.485 725.536 110.739 725.535 106.941C725.535 106.552 725.524 106.166 725.506 105.781C728.532 101.137 729.887 95.6002 729.346 90.0833C728.806 84.5664 726.403 79.398 722.533 75.4292Z" fill="#60A5FA"/>
<g id="Group" opacity="0.1">
<path id="Vector_32" d="M694.353 66.5868C694.42 66.5535 694.486 66.5153 694.554 66.4826C694.505 66.2198 694.472 65.9526 694.437 65.6859C694.43 65.7417 694.42 65.7963 694.413 65.8523C694.383 66.0983 694.37 66.3422 694.353 66.5868Z" fill="black"/>
<path id="Vector_33" d="M729.287 91.4278C728.843 95.1379 727.549 98.6955 725.506 101.824C725.524 102.209 725.536 102.595 725.536 102.984C725.536 109.285 723.1 115.342 718.735 119.887C714.371 124.431 708.418 127.111 702.122 127.365C695.826 127.62 689.676 125.428 684.96 121.25C680.243 117.072 677.326 111.231 676.819 104.951C676.766 105.608 676.733 106.27 676.733 106.941C676.733 113.413 679.304 119.619 683.88 124.195C688.456 128.771 694.663 131.342 701.134 131.342C707.606 131.342 713.812 128.771 718.389 124.195C722.965 119.619 725.536 113.413 725.536 106.941C725.536 106.552 725.524 106.166 725.506 105.781C728.465 101.247 729.827 95.8555 729.376 90.4603C729.35 90.7824 729.326 91.1041 729.287 91.4278Z" fill="black"/>
<path id="Vector_34" d="M724.535 65.6693C724.271 67.7202 723.59 69.6952 722.533 71.4723C722.96 71.9104 723.363 72.3697 723.755 72.838C724.587 70.5457 724.855 68.0868 724.535 65.6693Z" fill="black"/>
</g>
<path id="Vector_35" d="M624.202 337.226C624.319 338.615 624.695 339.969 625.311 341.219C625.625 341.841 626.082 342.379 626.644 342.791C627.207 343.203 627.858 343.476 628.546 343.587C629.811 343.595 631.051 343.236 632.115 342.552C634.288 341.418 636.542 340.099 637.676 337.926C638.774 335.822 638.616 333.312 638.431 330.946L636.972 312.34C633.458 312.243 629.927 312.245 626.416 312.436C622.938 312.626 622.327 313.445 622.811 316.84C623.774 323.598 623.305 330.463 624.202 337.226Z" fill="#FDE047"/>
<path id="Vector_36" d="M727.307 349.802L735.669 363.312C736.028 364.098 736.681 364.712 737.488 365.022C738.088 365.109 738.7 365.003 739.235 364.719C742.024 363.5 744.159 361.185 746.207 358.934C747.596 357.407 749.033 355.796 749.554 353.798C749.824 352.714 749.813 351.579 749.52 350.502C749.228 349.424 748.664 348.439 747.884 347.64C746.907 346.79 745.852 346.036 744.731 345.387C738.121 340.929 735.137 332.458 728.612 327.876C728.235 327.564 727.776 327.366 727.29 327.308C726.805 327.336 726.336 327.493 725.932 327.763C722.958 329.393 719.985 331.023 717.011 332.653C713.148 334.766 714.373 335.015 717.306 337.291C721.628 340.644 724.327 345.332 727.307 349.802Z" fill="#FDE047"/>
<path id="Vector_37" d="M642.353 326.465C641.128 326.079 639.756 325.731 638.601 326.293C638.061 326.624 637.604 327.073 637.265 327.608C636.926 328.142 636.714 328.747 636.646 329.377C636.413 330.618 636.441 331.907 636.097 333.122C635.515 335.171 633.954 336.772 632.449 338.28C631.841 339.006 631.05 339.556 630.159 339.874C628.953 340.183 627.671 339.618 626.445 339.832C625.73 340.016 625.08 340.391 624.563 340.917C624.047 341.444 623.684 342.101 623.514 342.819C623.196 344.258 623.147 345.744 623.371 347.201L624.32 357.571C624.488 358.835 624.501 360.114 624.359 361.382C624.009 363.661 622.684 365.662 621.949 367.848C621.214 370.034 621.255 372.825 623.095 374.216C623.737 374.644 624.477 374.904 625.246 374.972C626.015 375.04 626.789 374.913 627.497 374.604C628.905 373.968 630.152 373.022 631.143 371.836C636.775 365.694 639.29 357.375 643.67 350.286C644.788 348.646 645.789 346.929 646.664 345.148C647.265 343.77 647.647 342.31 648.133 340.888C648.805 338.988 649.611 337.139 650.546 335.354C651.067 334.333 653.061 331.874 652.642 330.733C651.927 328.787 644.25 327.063 642.353 326.465Z" fill="#60A5FA"/>
<path id="Vector_38" d="M743.909 355.069C742.642 357.446 740.527 359.259 737.984 360.147C737.246 360.347 736.559 360.702 735.97 361.19C735.583 361.662 735.344 362.237 735.281 362.845C735.218 363.452 735.336 364.064 735.618 364.605C736.2 365.677 736.957 366.644 737.858 367.466C742.914 372.816 746.258 379.554 747.461 386.817C747.76 388.649 747.956 390.597 749.053 392.095C751.195 395.022 755.755 394.83 758.975 393.162C759.959 392.711 760.813 392.019 761.457 391.15C761.994 390.207 762.335 389.166 762.46 388.089C763.042 385.42 763.363 382.7 763.419 379.968C763.357 374.812 761.42 369.883 760.495 364.811C759.182 357.611 759.84 349.857 756.487 343.353C756.153 342.589 755.626 341.925 754.957 341.428C754.118 340.987 753.177 340.776 752.23 340.816C749.201 340.692 746.17 340.665 743.138 340.736C742.288 340.756 741.295 340.863 740.855 341.59C740.405 342.333 740.798 343.282 741.193 344.056C743.07 347.729 746.111 350.664 743.909 355.069Z" fill="#60A5FA"/>
<path id="Vector_39" d="M671.961 226.032C671.113 226.731 670.539 227.706 670.339 228.785C670.138 229.865 670.324 230.981 670.863 231.938C671.535 233.051 672.739 234.087 672.475 235.359C672.201 236.68 670.577 237.129 669.245 237.341C657.501 239.209 646.073 242.647 634.687 246.075L622.744 249.671C619.301 250.708 615.797 251.773 612.821 253.792C610.091 255.653 607.93 258.234 606.579 261.249C605.214 264.311 604.745 267.683 604.257 270.999C602.464 283.204 600.173 295.529 594.728 306.597L623.694 316.095C626.503 317.127 629.412 317.859 632.373 318.28C635.197 318.514 638.039 318.377 640.827 317.871C640.647 311.402 640.537 304.74 640.358 298.271C640.339 296.229 640.206 294.188 639.96 292.16C639.526 289.06 638.564 286.045 638.264 282.93C639.601 281.827 641.543 282.102 643.274 282.152C647.226 282.267 651.084 280.894 654.598 279.083C658.112 277.272 661.38 275.016 664.875 273.168C670.697 270.089 677.319 268.018 681.764 263.157C679.5 271.785 674.151 279.304 673.116 288.165C672.071 297.117 675.715 305.878 679.281 314.155L690.677 340.602C691.935 343.522 693.611 346.804 696.713 347.501C698.646 347.935 700.64 347.209 702.434 346.369C712.922 341.457 721.313 332.222 732.512 329.269C731.678 323.723 727.296 319.139 724.814 314.11C722.721 309.868 722.038 305.092 720.643 300.572C719.248 296.053 716.852 291.473 712.638 289.325C710.637 288.304 707.942 287.417 707.755 285.179C707.742 284.46 707.895 283.748 708.201 283.097C709.701 279.321 712.031 275.93 715.017 273.175C715.401 272.879 715.709 272.494 715.913 272.054C716.024 271.617 716.046 271.164 715.979 270.719C715.768 267.118 717.696 263.749 719.847 260.854C721.998 257.958 724.484 255.202 725.696 251.805C727.781 245.964 725.712 239.545 723.651 233.696C722.817 231.331 721.941 228.894 720.229 227.063C717.546 224.191 713.366 223.363 709.458 222.935C696.825 221.55 681.999 218.238 671.961 226.032Z" fill="#60A5FA"/>
<g id="Group_2" opacity="0.1">
<path id="Vector_40" d="M670.645 227.779C671.07 227.692 671.464 227.493 671.786 227.203C672.108 226.912 672.346 226.54 672.476 226.127C672.508 225.964 672.518 225.799 672.505 225.634C672.323 225.766 672.139 225.893 671.961 226.032C671.38 226.492 670.927 227.094 670.645 227.779Z" fill="black"/>
</g>
<path id="Vector_41" d="M691.924 134.488C692.075 137.373 691.203 140.461 688.985 142.312C688.274 142.906 687.448 143.356 686.763 143.981C686.155 144.606 685.69 145.356 685.4 146.179C685.111 147.002 685.005 147.878 685.088 148.746C685.172 149.614 685.443 150.454 685.884 151.206C686.325 151.959 686.925 152.606 687.641 153.103C689.945 154.509 692.873 154.13 695.532 153.668C699.077 153.173 702.553 152.266 705.888 150.966C709.243 149.648 712.098 147.31 714.051 144.28C711.156 142.666 709.58 139.276 709.404 135.967C709.228 132.653 710.137 128.892 708.038 126.322C706.017 123.846 702.214 123.864 699.133 124.714C697.586 125.14 696.089 125.73 694.541 126.148C693.756 126.359 691.164 126.365 690.651 126.943C689.719 127.993 691.837 132.818 691.924 134.488Z" fill="#FDE047"/>
<path id="Vector_42" opacity="0.1" d="M691.863 134.291C692.014 137.177 691.143 140.265 688.925 142.116C688.213 142.71 687.387 143.16 686.702 143.785C686.094 144.41 685.629 145.16 685.34 145.983C685.051 146.805 684.944 147.681 685.028 148.55C685.111 149.418 685.383 150.257 685.824 151.01C686.265 151.762 686.864 152.41 687.581 152.907C689.884 154.313 692.813 153.933 695.471 153.472C699.016 152.977 702.492 152.07 705.828 150.77C709.182 149.452 712.038 147.113 713.99 144.084C711.096 142.47 709.519 139.08 709.343 135.771C709.168 132.457 710.076 128.696 707.977 126.125C705.956 123.65 702.153 123.668 699.072 124.518C697.526 124.944 696.029 125.534 694.48 125.951C693.695 126.163 691.104 126.168 690.591 126.746C689.659 127.797 691.776 132.622 691.863 134.291Z" fill="black"/>
<path id="Vector_43" d="M700.804 134.31C710.274 134.31 717.951 126.633 717.951 117.163C717.951 107.693 710.274 100.016 700.804 100.016C691.335 100.016 683.658 107.693 683.658 117.163C683.658 126.633 691.335 134.31 700.804 134.31Z" fill="#FDE047"/>
<path id="Vector_44" d="M646.66 248.716C646.352 250.071 645.805 251.36 645.046 252.523C643.046 256.075 642.324 260.205 642.999 264.225C643.361 266.218 644.207 268.092 645.464 269.681C646.721 271.27 648.35 272.525 650.206 273.336C651.812 273.968 653.8 274.134 655.124 273.028C652.833 270.048 652.711 265.98 652.848 262.223C652.809 261.522 652.976 260.825 653.329 260.218C653.423 260.073 653.546 259.95 653.69 259.855C653.833 259.759 653.995 259.695 654.165 259.665C654.335 259.634 654.509 259.639 654.676 259.679C654.844 259.719 655.002 259.793 655.14 259.896C655.082 262.261 655.539 264.611 656.479 266.782C656.842 267.617 657.462 268.539 658.372 268.515C659.677 268.481 660.03 266.712 659.981 265.407C659.779 260.089 659.518 254.55 656.955 249.887C656.016 248.18 654.765 246.577 654.409 244.661C654.392 243.997 654.162 243.356 653.753 242.833C653.47 242.611 653.14 242.457 652.788 242.383C651.312 241.966 647.818 240.667 646.6 242.05C645.294 243.533 646.896 246.944 646.66 248.716Z" fill="#FDE047"/>
<path id="Vector_45" d="M672.125 157.612C670.158 157.391 668.606 159.191 667.528 160.85C663.515 167.04 660.626 173.889 658.995 181.084C658.164 184.756 657.642 188.569 655.899 191.906C655.479 192.599 655.141 193.338 654.891 194.108C654.742 195.285 654.69 196.472 654.734 197.657C654.553 199.8 653.287 201.703 652.862 203.811C652.608 205.067 652.66 206.368 652.434 207.629C652.04 209.839 650.826 211.804 650.049 213.91C648.681 217.617 648.693 221.688 647.687 225.51C647.564 226.14 647.292 226.731 646.893 227.234C646.21 227.983 645.12 228.166 644.227 228.646C643.525 229.076 642.923 229.651 642.461 230.333C642 231.014 641.689 231.787 641.55 232.598C641.284 234.221 641.253 235.874 641.459 237.506L642.247 247.649C643.06 247.308 643.59 246.389 644.267 245.826C645.507 244.795 647.328 245.026 648.914 245.314L651.225 245.733C653.589 246.161 656.16 246.707 657.676 248.57C658.881 246.686 658.192 243.909 660.044 242.655C660.647 242.247 661.392 242.109 662.028 241.755C662.626 241.368 663.121 240.842 663.473 240.223C663.824 239.603 664.021 238.908 664.046 238.196C664.082 236.773 663.886 235.354 663.465 233.995C666.434 232.742 668.275 229.736 669.436 226.73C670.714 223.092 671.639 219.34 672.197 215.525C674.879 200.452 677.33 185.271 677.573 169.963C677.743 167.403 677.46 164.832 676.738 162.37C675.893 159.953 674.669 157.898 672.125 157.612Z" fill="#D4D4D4"/>
<path id="Vector_46" d="M715.354 141.197C712.523 144.165 708.906 146.266 704.925 147.254C700.965 148.228 696.921 148.823 692.849 149.033C691.596 149.242 690.311 149.131 689.114 148.71C687.962 148.188 687.087 146.825 687.556 145.651C687.783 145.288 687.936 144.884 688.007 144.461C687.987 143.417 686.45 143.33 685.452 143.639C678.851 145.681 672.521 149.723 669.474 155.925C667.754 159.428 667.186 163.367 666.64 167.232C665.205 177.396 663.774 187.782 665.697 197.866C666.723 203.242 668.696 208.484 668.819 213.956C668.888 217.023 668.371 220.077 668.395 223.145C668.304 224.219 668.591 225.292 669.208 226.176C669.683 226.728 670.399 227.076 670.73 227.724C671.284 228.808 670.543 230.295 671.273 231.27C672.17 232.47 674.046 231.608 675.283 230.762C681.505 226.537 689.019 224.645 696.5 225.42C705.487 226.385 714.417 231.174 723.133 228.781C722.684 228.127 722.297 227.432 721.976 226.706C717.63 212.425 717.924 196.462 724.428 183.026C726.65 178.436 729.599 174.061 730.45 169.033C730.794 166.681 730.821 164.294 730.531 161.934C730.073 157.37 728.986 152.767 726.505 148.908C724.024 145.049 719.919 141.649 715.354 141.197Z" fill="#D4D4D4"/>
<path id="Vector_47" d="M673.87 253.129C673.172 254.994 672.837 256.975 672.883 258.966C672.818 260.87 672.913 262.776 673.167 264.664C673.312 266.278 673.887 267.824 674.832 269.14C675.316 269.788 675.981 270.278 676.742 270.549C677.504 270.82 678.329 270.859 679.113 270.662C679.73 270.405 680.282 270.015 680.729 269.518C681.176 269.021 681.506 268.431 681.696 267.79C682.065 266.509 682.336 265.202 682.506 263.88C683.258 259.988 685.301 256.335 685.337 252.371C685.366 251.901 685.291 251.431 685.119 250.992C684.376 249.363 680.734 247.534 678.954 247.809C676.728 248.152 674.678 251.247 673.87 253.129Z" fill="#FDE047"/>
<path id="Vector_48" opacity="0.1" d="M723.352 155.673C723.013 159.082 726.311 161.652 727.615 164.82C728.148 166.299 728.452 167.851 728.515 169.422C729.431 180.323 728.719 191.288 728.008 202.204C727.878 205.838 727.427 209.454 726.661 213.008C724.82 220.468 720.292 226.934 715.855 233.207C714.331 235.722 711.998 237.645 709.239 238.664L694.015 246.039C692.107 246.881 690.294 247.924 688.607 249.149C686.648 250.684 685.108 252.689 684.13 254.977C681.176 253.468 678.11 252.113 675.156 250.603C674.465 250.25 673.691 249.789 673.572 249.022C673.412 247.993 674.488 247.266 675.228 246.533C676.613 245.163 677.041 243.131 677.791 241.333C680.241 235.457 686.403 231.696 688.626 225.73C689.48 223.438 689.741 220.847 691.256 218.926C692.123 217.962 693.098 217.102 694.161 216.362C696.508 214.37 698.664 212.163 700.601 209.77C701.471 208.867 702.183 207.824 702.707 206.686C703.372 204.993 703.173 203.105 703.208 201.286C703.321 195.332 706.013 189.779 707.661 184.056C709.214 178.667 709.861 173.013 711.898 167.788C713.934 162.562 717.923 157.078 723.352 155.673Z" fill="black"/>
<path id="Vector_49" d="M725.331 155.673C724.992 159.082 728.29 161.652 729.594 164.82C730.127 166.299 730.43 167.851 730.493 169.422C731.409 180.323 730.698 191.288 729.986 202.204C729.856 205.838 729.405 209.454 728.639 213.008C726.799 220.468 722.271 226.934 717.834 233.207C716.309 235.722 713.977 237.645 711.218 238.664L695.993 246.039C694.086 246.881 692.273 247.924 690.585 249.149C688.627 250.684 687.087 252.689 686.109 254.977C683.155 253.468 680.088 252.113 677.134 250.603C676.443 250.25 675.67 249.789 675.551 249.022C675.391 247.993 676.466 247.266 677.207 246.533C678.592 245.163 679.019 243.131 679.769 241.333C682.219 235.457 688.382 231.696 690.605 225.73C691.459 223.438 691.72 220.847 693.235 218.926C694.101 217.962 695.076 217.102 696.14 216.362C698.487 214.37 700.643 212.163 702.579 209.77C703.449 208.867 704.161 207.824 704.685 206.686C705.351 204.993 705.152 203.105 705.186 201.286C705.3 195.332 707.992 189.779 709.64 184.056C711.192 178.667 711.84 173.013 713.876 167.788C715.912 162.562 719.901 157.078 725.331 155.673Z" fill="#D4D4D4"/>
<path id="Vector_50" d="M709.308 90.6556C704.025 90.0098 698.676 91.1172 694.083 93.8075C694.76 93.8328 695.439 93.879 696.124 93.9617C701.198 94.5744 705.951 96.765 709.714 100.224C713.476 103.684 716.057 108.237 717.092 113.242C718.128 118.247 717.565 123.451 715.484 128.119C713.403 132.787 709.909 136.684 705.495 139.26C711.785 139.489 717.92 137.279 722.618 133.091C727.317 128.903 730.215 123.061 730.707 116.786C731.2 110.511 729.248 104.289 725.26 99.4193C721.272 94.5497 715.556 91.4098 709.308 90.6556Z" fill="#60A5FA"/>
<path id="Vector_51" d="M716.814 104.221C717.407 105.562 717.729 107.008 717.762 108.475C717.795 109.941 717.539 111.4 717.007 112.767C716.892 112.414 716.758 112.066 716.607 111.727C713.591 105.015 704.3 102.238 695.855 105.522C690.88 107.457 687.31 111.064 685.832 115.074C683.681 108.586 688.049 101.132 696.062 98.016C704.507 94.7315 713.798 97.5095 716.814 104.221Z" fill="#60A5FA"/>
<g id="Group_3" opacity="0.1">
<path id="Vector_52" d="M716.861 112.235C716.471 107.524 714.723 103.029 711.829 99.2921C708.934 95.5557 705.018 92.7391 700.555 91.1838C698.283 91.7433 696.103 92.627 694.083 93.8076C694.76 93.8329 695.439 93.8791 696.124 93.9618C701.022 94.5541 705.626 96.6175 709.329 99.8796C713.031 103.142 715.657 107.45 716.861 112.235Z" fill="black"/>
<path id="Vector_53" d="M720.818 94.4284C720.428 89.7182 718.68 85.2223 715.786 81.4859C712.891 77.7494 708.975 74.9328 704.512 73.3776C702.24 73.9371 700.06 74.8207 698.04 76.0013C698.717 76.0267 699.397 76.0728 700.081 76.1555C704.979 76.7479 709.583 78.8112 713.286 82.0734C716.988 85.3355 719.614 89.6432 720.818 94.4284Z" fill="black"/>
<path id="Vector_54" d="M720.919 67.8325C720.684 64.9898 719.629 62.2765 717.882 60.0215C716.135 57.7665 713.772 56.0667 711.078 55.1281C709.707 55.4657 708.391 55.999 707.172 56.7115C707.58 56.7268 707.991 56.7547 708.404 56.8046C711.36 57.1621 714.139 58.4073 716.373 60.376C718.607 62.3448 720.192 64.9446 720.919 67.8325Z" fill="black"/>
<path id="Vector_55" d="M730.045 108.929C730.52 114.78 728.87 120.607 725.398 125.341C721.927 130.076 716.866 133.401 711.143 134.708C709.496 136.497 707.592 138.031 705.495 139.26C709.278 139.398 713.041 138.654 716.487 137.086C719.933 135.519 722.967 133.171 725.349 130.229C727.73 127.286 729.395 123.829 730.21 120.133C731.025 116.436 730.969 112.6 730.045 108.929Z" fill="black"/>
</g>
<path id="Vector_56" d="M654.146 265.276L650.99 169.88" stroke="#4338CA" stroke-width="2" stroke-miterlimit="10"/>
<path id="Vector_57" d="M650.99 183.378C658.445 183.378 664.488 177.335 664.488 169.88C664.488 162.426 658.445 156.383 650.99 156.383C643.536 156.383 637.493 162.426 637.493 169.88C637.493 177.335 643.536 183.378 650.99 183.378Z" fill="#10B981"/>
<path id="Vector_58" d="M652.935 228.674C652.935 228.674 649.637 187.289 610.289 193.413L652.935 228.674Z" fill="#10B981"/>
</g>
<defs>
<linearGradient id="paint0_linear_155_34" x1="712.627" y1="132.668" x2="712.627" y2="122.211" gradientUnits="userSpaceOnUse">
<stop stop-color="#808080" stop-opacity="0.25"/>
<stop offset="0.53514" stop-color="#808080" stop-opacity="0.12"/>
<stop offset="1" stop-color="#808080" stop-opacity="0.1"/>
</linearGradient>
<clipPath id="clip0_155_34">
<rect width="800" height="560.704" fill="white"/>
</clipPath>
</defs>
</svg>
