<svg width="800" height="402" viewBox="0 0 800 402" fill="none" xmlns="http://www.w3.org/2000/svg">
<g id="contact-animation" clip-path="url(#clip0_166_1025)">
<path id="Vector" d="M263.456 401.036C239.317 401.036 215.214 400.604 191.146 399.739C156.757 398.504 121.197 397.227 88.1454 378.896C65.0243 366.074 44.5469 345.501 28.9277 319.401C18.4881 301.711 10.8333 282.519 6.23223 262.5C-2.35055 226.053 -2.05821 188.078 7.08467 151.767C10.2887 139.317 14.7056 127.212 20.2721 115.624C44.3754 65.7111 88.3381 32.2058 140.888 23.7C141.322 23.6437 141.761 23.6343 142.197 23.6721C142.433 23.6847 142.669 23.6983 142.909 23.6882L143.218 23.59C144.011 23.3145 144.825 23.1055 145.652 22.9653C226.698 10.8999 312.375 35.3124 393.415 93.5618C456.075 138.606 539.117 162.862 647.287 167.715L648.823 167.795C678.935 169.525 708.062 181.939 733.06 203.698C757.732 225.174 776.257 253.827 786.632 286.56C787.907 290.551 789.076 294.705 790.107 298.907C791.066 302.811 790.998 306.897 789.91 310.768C788.822 314.639 786.751 318.162 783.897 320.995V321.003L783.628 321.279C782.98 321.924 782.297 322.543 781.6 323.118L780.779 323.795C773.867 329.489 768.407 333.987 761.872 337.481C757.514 339.795 752.879 341.545 748.079 342.689C721.719 349.115 694.95 355.074 668.516 360.399C617.179 370.75 564.49 379.289 511.912 385.778C429.483 395.941 346.509 401.037 263.456 401.036ZM141.582 25.4399C141.421 25.4384 141.26 25.4493 141.1 25.4726C89.0411 33.8989 45.4946 67.0753 21.6303 116.494C16.1187 127.967 11.7455 139.952 8.57332 152.279C-0.486248 188.268 -0.774951 225.906 7.73149 262.029C12.2875 281.857 19.8681 300.865 30.2069 318.386C45.6733 344.23 65.9412 364.596 88.8199 377.283C121.575 395.451 156.967 396.722 191.195 397.95C298.246 401.775 405.432 397.11 511.746 383.999C564.29 377.514 616.945 368.981 668.248 358.636C694.664 353.315 721.414 347.361 747.756 340.938C752.441 339.823 756.965 338.116 761.218 335.858C767.621 332.435 773.028 327.979 779.875 322.339L780.695 321.664C781.295 321.169 781.884 320.639 782.447 320.089L782.609 319.919C788.235 314.248 790.423 306.767 788.611 299.393V299.392C787.592 295.235 786.435 291.126 785.173 287.176C763.979 220.308 709.155 173.052 648.749 169.583L647.221 169.502C597.811 167.285 554.573 161.143 515.042 150.724C467.852 138.287 426.654 119.565 392.592 95.0793C311.861 37.0532 226.542 12.7315 145.85 24.7397C145.096 24.8697 144.355 25.062 143.633 25.3145L143.075 25.4705C142.759 25.4846 142.442 25.4808 142.126 25.4591C141.939 25.4495 141.759 25.4399 141.582 25.4399Z" fill="#F2F2F2"/>
<path id="Vector_2" d="M249.887 130.662C247.653 128.518 245.367 116.562 242.514 115.348C244.646 120.061 243.098 121.309 243.087 126.482C243.113 129.419 242.77 132.348 242.066 135.2H193.735V97.4815C193.735 94.0924 194.403 90.7365 195.7 87.6054C196.996 84.4743 198.897 81.6293 201.294 79.2328C203.69 76.8364 206.535 74.9355 209.666 73.6386C212.798 72.3417 216.153 71.6742 219.543 71.6743C220.836 71.6996 222.121 71.8877 223.368 72.2343C227.522 73.3559 231.308 75.5501 234.346 78.5969C237.385 81.6437 239.569 85.4359 240.679 89.5931C244.363 103.06 250.223 125.477 249.887 130.662Z" fill="#60A5FA"/>
<path id="Vector_3" d="M196.571 177.063L196.595 147.664L179.314 149.208L185.413 167.75L182.558 214.356C181.174 214.666 179.91 215.373 178.92 216.39C177.93 217.406 177.258 218.689 176.985 220.081C176.711 221.474 176.849 222.915 177.381 224.231C177.913 225.546 178.816 226.678 179.98 227.489C181.145 228.3 182.52 228.755 183.938 228.798C185.356 228.841 186.756 228.47 187.967 227.731C189.178 226.992 190.148 225.917 190.759 224.636C191.37 223.355 191.594 221.924 191.406 220.518L196.571 177.063Z" fill="#FDE047"/>
<path id="Vector_4" d="M230.581 387.149L237.562 387.149L240.884 360.219H230.579L230.581 387.149Z" fill="#FDE047"/>
<path id="Vector_5" d="M228.216 383.705L239.253 383.046V387.775L249.746 395.022C250.264 395.38 250.655 395.894 250.86 396.489C251.066 397.085 251.075 397.73 250.888 398.331C250.7 398.933 250.326 399.458 249.818 399.832C249.311 400.205 248.698 400.406 248.068 400.406H234.928L232.663 395.729L231.779 400.406H226.825L228.216 383.705Z" fill="#60A5FA"/>
<path id="Vector_6" d="M190.211 387.149L197.193 387.149L200.514 360.219H190.21L190.211 387.149Z" fill="#FDE047"/>
<path id="Vector_7" d="M187.847 383.705L198.884 383.046V387.775L209.377 395.022C209.895 395.38 210.285 395.894 210.491 396.489C210.696 397.085 210.706 397.73 210.518 398.331C210.331 398.933 209.956 399.458 209.449 399.832C208.941 400.205 208.328 400.406 207.698 400.406H194.558L192.294 395.729L191.409 400.406H186.455L187.847 383.705Z" fill="#60A5FA"/>
<path id="Vector_8" d="M224.364 115.915L209.9 116.199L199.691 126.976L191.506 128.176C187.803 128.719 184.399 130.516 181.863 133.268C179.326 136.019 177.811 139.558 177.57 143.292L178.988 151.081H187.496L192.418 179.979C190.504 184.856 190.374 188.705 194.302 190.217L206.497 213.189L242.514 197.024C244.34 193.883 244.926 190.729 243.058 187.662L245.633 143.424H254.291C254.291 135.15 251.492 128.175 243.269 127.254C240.004 126.901 236.723 126.713 233.439 126.692L224.364 115.915Z" fill="#E5E5E5"/>
<path id="Vector_9" d="M242.513 197.024C242.513 197.024 207.348 203.263 194.302 190.217C194.302 190.217 192.978 192.466 190.982 196.195C190.408 197.267 189.3 197.993 188.63 199.292C188.022 200.473 186.457 201.924 185.794 203.263C185.261 204.34 186.117 205.748 185.562 206.911C178.881 220.924 171.076 240.691 172.749 253.743C173.828 262.16 176.057 281.745 178.404 302.782C178.588 304.425 177.102 306.536 177.287 308.193C177.46 309.755 179.304 310.862 179.478 312.428C179.593 313.468 178.306 314.528 178.421 315.567C178.547 316.706 180.076 317.823 180.202 318.957C183.417 348.004 186.362 375.122 186.362 375.122H202.81L205.914 313.187L203.377 290.61L209.333 244.951L217.557 288.341L218.615 312.762L227.307 376.256H242.513V314.789L243.648 311.596L242.513 307.501L243.648 303.088L242.513 298.283V197.024Z" fill="#60A5FA"/>
<path id="Vector_10" d="M228.803 107.528C226.563 110.504 223.375 112.628 219.766 113.551C216.157 114.474 212.341 114.14 208.947 112.605C205.553 111.069 202.783 108.424 201.094 105.104C199.404 101.784 198.896 97.9871 199.652 94.3395C200.408 90.6918 202.384 87.4105 205.254 85.0359C208.125 82.6612 211.718 81.3349 215.443 81.2753C219.168 81.2157 222.802 82.4263 225.746 84.7079C228.691 86.9895 230.771 90.206 231.644 93.8275C231.691 94.024 231.73 94.2194 231.769 94.4223C232.23 96.6923 232.204 99.0342 231.693 101.293C231.181 103.553 230.196 105.678 228.803 107.528Z" fill="#FDE047"/>
<path id="Vector_11" d="M225.384 98.1734C225.037 96.4279 224.157 94.8329 222.866 93.6075C222.993 95.2802 222.761 96.9608 222.185 98.5364C217.874 98.9183 213.542 98.0603 209.702 96.0635C206.809 94.101 203.128 94.2712 198.84 96.0635C198.84 93.9779 199.25 91.9126 200.048 89.9857C200.846 88.0587 202.016 86.3079 203.491 84.8331C204.966 83.3583 206.716 82.1885 208.643 81.3905C210.57 80.5925 212.636 80.1819 214.721 80.1821H217.557C221.769 80.1829 225.808 81.8564 228.786 84.8345C231.764 87.8127 233.438 91.8517 233.439 96.0635C230.821 97.0023 228.126 97.7083 225.384 98.1734Z" fill="#60A5FA"/>
<path id="Vector_12" d="M101.313 300.587C126.511 300.587 146.938 280.16 146.938 254.963C146.938 229.765 126.511 209.338 101.313 209.338C76.1154 209.338 55.6885 229.765 55.6885 254.963C55.6885 280.16 76.1154 300.587 101.313 300.587Z" fill="#F2F2F2"/>
<path id="Vector_13" d="M392.06 91.2497C417.258 91.2497 437.685 70.8228 437.685 45.6249C437.685 20.4269 417.258 0 392.06 0C366.862 0 346.435 20.4269 346.435 45.6249C346.435 70.8228 366.862 91.2497 392.06 91.2497Z" fill="#F2F2F2"/>
<path id="Vector_14" d="M754.375 307.744C779.573 307.744 800 287.317 800 262.119C800 236.921 779.573 216.495 754.375 216.495C729.177 216.495 708.75 236.921 708.75 262.119C708.75 287.317 729.177 307.744 754.375 307.744Z" fill="#F2F2F2"/>
<path id="Vector_15" d="M474.364 50.6005V154.058C474.364 156.207 473.516 158.269 472.005 159.797C470.493 161.324 468.44 162.194 466.291 162.216C466.262 162.219 466.232 162.221 466.202 162.22H454.161C444.526 162.22 435.286 158.393 428.474 151.58C421.661 144.767 417.834 135.528 417.834 125.893V50.6004C417.834 48.4358 418.694 46.3598 420.225 44.8291C421.755 43.2985 423.831 42.4386 425.996 42.4386H430.875C428.615 49.0324 459.292 51.8085 460.977 42.4386H466.202C468.367 42.4386 470.443 43.2985 471.973 44.8292C473.504 46.3598 474.364 48.4358 474.364 50.6005Z" fill="#10B981"/>
<path id="Vector_16" d="M438.63 34.7024C438.631 34.4189 438.743 34.147 438.944 33.9465C439.145 33.746 439.416 33.6331 439.7 33.6328H446.974C447.257 33.6336 447.528 33.7467 447.728 33.9472C447.928 34.1477 448.04 34.4193 448.04 34.7024C448.04 34.9856 447.928 35.2572 447.728 35.4577C447.528 35.6582 447.257 35.7713 446.974 35.7721H439.7C439.416 35.7717 439.145 35.659 438.944 35.4584C438.743 35.2579 438.631 34.986 438.63 34.7024Z" fill="#1F2937"/>
<path id="Vector_17" d="M468.701 175.343H422.704C419.135 175.339 415.714 173.919 413.19 171.396C410.667 168.873 409.247 165.451 409.243 161.883V89.5615C408.99 89.3801 408.785 89.1411 408.643 88.8644C408.501 88.5876 408.428 88.2811 408.428 87.9702V80.6967C408.428 80.3858 408.501 80.0793 408.643 79.8026C408.785 79.5259 408.99 79.2871 409.243 79.1058V77.1536C408.99 76.9724 408.785 76.7335 408.643 76.4568C408.501 76.1801 408.428 75.8736 408.428 75.5627V68.2888C408.428 67.978 408.501 67.6715 408.643 67.3948C408.785 67.1181 408.99 66.8792 409.243 66.6979V63.1698C408.931 63.0023 408.671 62.7531 408.489 62.4491C408.308 62.145 408.213 61.7974 408.214 61.4434V54.17C408.213 53.8159 408.308 53.4682 408.489 53.1641C408.671 52.86 408.931 52.6108 409.243 52.4432V42.7755C409.247 39.2069 410.667 35.7856 413.19 33.2622C415.714 30.7388 419.135 29.3194 422.704 29.3154H468.701C472.269 29.3195 475.691 30.7389 478.214 33.2623C480.737 35.7856 482.157 39.207 482.161 42.7756V63.849C482.403 64.0006 482.603 64.2114 482.742 64.4615C482.88 64.7116 482.953 64.9928 482.953 65.2787V79.1477C482.953 79.4337 482.88 79.715 482.742 79.9651C482.603 80.2153 482.403 80.4261 482.161 80.5778V161.883C482.157 165.451 480.737 168.872 478.214 171.396C475.691 173.919 472.269 175.339 468.701 175.343ZM422.704 31.1046C419.609 31.1081 416.643 32.3388 414.455 34.5268C412.267 36.7148 411.036 39.6813 411.032 42.7756V53.9651L410.172 53.9983C410.127 53.9999 410.085 54.0186 410.053 54.0506C410.022 54.0825 410.004 54.1252 410.003 54.17V61.4434C410.004 61.4881 410.022 61.5308 410.053 61.5627C410.085 61.5946 410.127 61.6133 410.172 61.6151L411.032 61.6478V67.9542L410.352 68.1219C410.314 68.131 410.28 68.1523 410.256 68.1825C410.232 68.2127 410.218 68.25 410.217 68.2888V75.5627C410.218 75.6015 410.232 75.6389 410.256 75.669C410.28 75.6992 410.314 75.7205 410.352 75.7296L411.032 75.8973V80.362L410.352 80.5298C410.314 80.5388 410.28 80.5602 410.256 80.5903C410.232 80.6205 410.218 80.6579 410.217 80.6967V87.9701C410.218 88.0089 410.232 88.0464 410.256 88.0767C410.28 88.1069 410.314 88.1283 410.352 88.1374L411.032 88.3051V161.883C411.036 164.977 412.267 167.943 414.455 170.131C416.643 172.319 419.609 173.55 422.704 173.553H468.701C471.795 173.55 474.761 172.319 476.949 170.131C479.137 167.943 480.368 164.977 480.372 161.883V79.0459H481.164V65.3809H480.372V42.7755C480.368 39.6813 479.137 36.7148 476.949 34.5268C474.761 32.3389 471.795 31.1082 468.701 31.1046L422.704 31.1046Z" fill="#1F2937"/>
<path id="Vector_18" d="M451.038 35.7721C451.629 35.7721 452.108 35.2932 452.108 34.7024C452.108 34.1117 451.629 33.6328 451.038 33.6328C450.448 33.6328 449.969 34.1117 449.969 34.7024C449.969 35.2932 450.448 35.7721 451.038 35.7721Z" fill="#1F2937"/>
<path id="Vector_19" d="M218.355 241.904H98.6686C96.969 241.9 95.3401 241.222 94.1382 240.021C92.9363 238.819 92.259 237.19 92.2544 235.491V177.172C92.2588 175.472 92.9358 173.844 94.1376 172.642C95.3394 171.44 96.9681 170.762 98.6678 170.758H218.354C220.054 170.762 221.683 171.439 222.885 172.641C224.087 173.843 224.764 175.472 224.769 177.171V235.49C224.764 237.189 224.087 238.818 222.885 240.02C221.684 241.222 220.055 241.899 218.355 241.904Z" fill="white"/>
<path id="Vector_20" d="M218.355 241.904H98.6686C96.969 241.9 95.3401 241.222 94.1382 240.021C92.9363 238.819 92.259 237.19 92.2544 235.491V177.172C92.2588 175.472 92.9358 173.844 94.1376 172.642C95.3394 171.44 96.9681 170.762 98.6678 170.758H218.354C220.054 170.762 221.683 171.439 222.885 172.641C224.087 173.843 224.764 175.472 224.769 177.171V235.49C224.764 237.189 224.087 238.818 222.885 240.02C221.684 241.222 220.055 241.899 218.355 241.904ZM98.6686 172.547C97.443 172.551 96.2685 173.039 95.4019 173.906C94.5353 174.773 94.047 175.947 94.0436 177.173V235.49C94.0472 236.715 94.5357 237.89 95.4025 238.756C96.2693 239.623 97.4438 240.111 98.6695 240.115H218.354C219.579 240.111 220.754 239.623 221.621 238.756C222.488 237.889 222.976 236.715 222.979 235.489V177.172C222.976 175.946 222.487 174.772 221.621 173.905C220.754 173.039 219.579 172.55 218.354 172.547L98.6686 172.547Z" fill="#1F2937"/>
<path id="Vector_21" d="M164.927 233.285C141.322 233.285 116.709 233.06 107.525 232.913C106.317 232.889 105.166 232.392 104.319 231.531C103.471 230.669 102.994 229.51 102.99 228.302V180.027C102.99 179.594 103.162 179.179 103.468 178.873C103.773 178.567 104.188 178.394 104.621 178.392H212.399C212.832 178.393 213.246 178.565 213.553 178.87C213.859 179.176 214.032 179.59 214.034 180.023V212.776C214.013 218.123 211.899 223.248 208.143 227.054C204.387 230.859 199.289 233.04 193.943 233.13C185.384 233.242 175.25 233.285 164.927 233.285Z" fill="#10B981"/>
<path id="Vector_22" d="M206.001 209.767H108.615C107.799 209.765 107.005 209.512 106.338 209.042C105.672 208.572 105.166 207.908 104.89 207.141L93.8671 176.218C93.6546 175.621 93.5884 174.982 93.674 174.355C93.7596 173.728 93.9944 173.13 94.3589 172.613C94.7233 172.095 95.2066 171.672 95.7683 171.38C96.3299 171.088 96.9535 170.935 97.5866 170.933L219.318 170.764C219.896 170.763 220.468 170.89 220.992 171.134C221.517 171.378 221.982 171.735 222.353 172.178C222.725 172.621 222.995 173.141 223.145 173.7C223.294 174.259 223.319 174.844 223.217 175.414L223.311 175.454L222.962 176.269L222.958 176.277L209.633 207.37C209.33 208.082 208.824 208.688 208.178 209.115C207.532 209.541 206.775 209.768 206.001 209.767ZM219.323 172.553L97.59 172.723C97.2432 172.723 96.9016 172.807 96.5939 172.967C96.2862 173.127 96.0214 173.359 95.8218 173.642C95.6221 173.926 95.4935 174.253 95.4466 174.597C95.3997 174.94 95.4359 175.29 95.5523 175.617L106.575 206.539C106.726 206.959 107.003 207.323 107.369 207.58C107.734 207.838 108.169 207.977 108.616 207.978H206.001C206.425 207.978 206.839 207.854 207.192 207.621C207.546 207.387 207.823 207.055 207.989 206.666L221.314 175.572C221.455 175.243 221.513 174.884 221.481 174.527C221.449 174.17 221.329 173.826 221.132 173.527C220.934 173.227 220.666 172.982 220.35 172.812C220.034 172.642 219.682 172.553 219.323 172.553Z" fill="#1F2937"/>
<path id="Vector_23" d="M158.33 216.498C162.542 216.498 165.956 213.084 165.956 208.873C165.956 204.661 162.542 201.247 158.33 201.247C154.119 201.247 150.705 204.661 150.705 208.873C150.705 213.084 154.119 216.498 158.33 216.498Z" fill="white"/>
<path id="Vector_24" d="M446.393 150.297C450.604 150.297 454.018 146.883 454.018 142.672C454.018 138.46 450.604 135.046 446.393 135.046C442.181 135.046 438.767 138.46 438.767 142.672C438.767 146.883 442.181 150.297 446.393 150.297Z" fill="white"/>
<path id="Vector_25" d="M734.81 253.281L714.44 233.17C713.448 232.183 712.272 231.402 710.977 230.871C709.683 230.34 708.297 230.069 706.898 230.075H706.827C705.417 230.079 704.023 230.362 702.723 230.909C701.424 231.456 700.247 232.255 699.258 233.259C694.704 237.869 692.113 244.065 692.031 250.544C691.95 257.024 694.383 263.283 698.82 268.006C699.035 268.238 699.258 268.462 699.482 268.686C700.721 269.917 702.088 271.012 703.561 271.951C707.588 274.553 712.284 275.93 717.079 275.914H717.231C720.522 275.903 723.778 275.239 726.81 273.962C729.843 272.684 732.592 270.818 734.899 268.471C736.898 266.443 738.011 263.705 737.995 260.857C737.978 258.01 736.833 255.285 734.81 253.281ZM733.629 267.21C729.847 271.02 724.867 273.41 719.529 273.977C714.19 274.544 708.82 273.253 704.322 270.323C703.035 269.471 701.834 268.498 700.734 267.415C696.345 263.08 693.858 257.18 693.819 251.011C693.78 244.842 696.194 238.91 700.529 234.521C701.353 233.681 702.335 233.014 703.42 232.558C704.504 232.102 705.668 231.866 706.845 231.864H706.898C708.063 231.86 709.217 232.085 710.295 232.527C711.372 232.969 712.352 233.619 713.178 234.44L733.548 254.56C735.235 256.228 736.19 258.496 736.205 260.868C736.221 263.24 735.294 265.521 733.629 267.21Z" fill="#1F2937"/>
<path id="Vector_26" d="M667.974 187.277L647.604 167.157C645.599 165.168 642.887 164.055 640.062 164.062H640C638.589 164.067 637.192 164.352 635.892 164.901C634.591 165.449 633.412 166.249 632.422 167.255C628.657 171.08 626.216 176.009 625.456 181.322C624.696 186.635 625.658 192.051 628.2 196.777L628.209 196.786C629.258 198.719 630.561 200.504 632.083 202.091C632.253 202.288 632.449 202.485 632.646 202.682C637.324 207.325 643.652 209.924 650.243 209.91H650.404C653.695 209.896 656.951 209.231 659.984 207.952C663.016 206.673 665.766 204.806 668.073 202.458C669.063 201.455 669.846 200.266 670.377 198.96C670.908 197.654 671.177 196.257 671.168 194.847C671.159 193.437 670.872 192.043 670.324 190.744C669.776 189.445 668.977 188.267 667.974 187.277ZM666.793 201.206C664.652 203.384 662.1 205.117 659.286 206.304C656.471 207.49 653.45 208.108 650.395 208.121H650.243C645.656 208.119 641.171 206.761 637.354 204.217C633.537 201.674 630.557 198.058 628.789 193.825C627.021 189.592 626.544 184.931 627.418 180.428C628.292 175.925 630.478 171.781 633.702 168.517C635.37 166.831 637.638 165.875 640.01 165.86C642.382 165.845 644.662 166.771 646.352 168.436L666.722 188.547C668.407 190.218 669.361 192.489 669.374 194.862C669.388 197.235 668.459 199.516 666.793 201.206Z" fill="#1F2937"/>
<path id="Vector_27" d="M736.112 259.603L713.655 237.423C712.182 235.972 710.194 235.164 708.126 235.177C706.059 235.19 704.081 236.022 702.626 237.491C700.807 239.329 699.368 241.508 698.391 243.903C697.414 246.298 696.918 248.862 696.933 251.448C696.948 254.035 697.472 256.593 698.476 258.976C699.48 261.36 700.944 263.522 702.784 265.34C704.624 267.157 706.804 268.594 709.2 269.569C711.596 270.543 714.161 271.035 716.747 271.018C719.333 271 721.891 270.473 724.273 269.467C726.656 268.46 728.817 266.994 730.632 265.152L736.112 259.603Z" fill="#10B981"/>
<path id="Vector_28" d="M669.28 193.596L646.823 171.415C645.35 169.964 643.362 169.156 641.294 169.169C639.227 169.182 637.249 170.014 635.794 171.484C633.975 173.322 632.535 175.501 631.559 177.896C630.582 180.29 630.086 182.854 630.101 185.441C630.116 188.027 630.64 190.585 631.644 192.969C632.648 195.352 634.112 197.515 635.952 199.332C637.792 201.15 639.972 202.587 642.368 203.561C644.764 204.535 647.329 205.028 649.915 205.01C652.501 204.993 655.059 204.466 657.441 203.459C659.824 202.453 661.985 200.986 663.8 199.144L669.28 193.596Z" fill="#10B981"/>
<path id="Vector_29" d="M711.434 273.418L710.897 274.832C708.375 273.874 705.929 272.914 703.562 271.951C661.622 254.837 641.601 234.807 628.209 196.786L628.2 196.777C627.565 194.988 626.948 193.157 626.348 191.285L627.762 190.828C628.234 192.629 628.925 194.366 629.819 195.999C630.553 198.083 631.307 200.114 632.083 202.091C644.67 234.181 663.233 252.52 698.82 268.006C700.609 268.784 702.443 269.557 704.322 270.323C706.503 271.744 708.907 272.79 711.434 273.418Z" fill="#1F2937"/>
<path id="Vector_30" d="M647.231 208.282L645.973 209.555L692.437 255.446L693.695 254.173L647.231 208.282Z" fill="#1F2937"/>
<path id="Vector_31" d="M253.857 170.256L253.881 140.857L236.6 142.402L242.699 160.944L220.56 194.504C219.175 194.815 217.911 195.521 216.921 196.538C215.932 197.555 215.259 198.837 214.986 200.23C214.713 201.622 214.85 203.064 215.382 204.379C215.914 205.694 216.817 206.826 217.982 207.637C219.146 208.448 220.521 208.903 221.939 208.946C223.357 208.989 224.757 208.618 225.969 207.879C227.18 207.14 228.15 206.065 228.76 204.784C229.371 203.503 229.596 202.073 229.407 200.667L253.857 170.256Z" fill="#FDE047"/>
</g>
<defs>
<clipPath id="clip0_166_1025">
<rect width="800" height="401.036" fill="white"/>
</clipPath>
</defs>
</svg>
