<svg width="72" height="72" viewBox="0 0 72 72" fill="none" xmlns="http://www.w3.org/2000/svg">
<path d="M10.916 17.9525H61.0861V47.0586H66.0639V17.9525C66.0639 15.2026 63.836 12.9735 61.0861 12.9735H10.916C8.1662 12.9735 5.93701 15.2026 5.93701 17.9525V47.0586H10.916V17.9525Z" fill="#10B981" fill-opacity="0.2"/>
<path d="M0.461531 50.6331H0.0230625H0V51.5982C0 55.701 3.32564 59.0265 7.42894 59.0265H64.5711C68.6744 59.0265 72 55.701 72 51.5982V50.6331H0.461531ZM31.5 55.2847V54.3749C31.5 54.0448 31.768 53.7767 32.0988 53.7767H39.9014C40.232 53.7767 40.5001 54.0448 40.5001 54.3749V55.2847C40.5001 55.6153 40.2321 55.8829 39.9014 55.8829H32.0988C31.768 55.8829 31.5 55.6153 31.5 55.2847Z" fill="#10B981" fill-opacity="0.2"/>
<path d="M34.2703 26.8749L32.7525 26.8723L32.7531 26.8749H32.7306L33.025 29.2463H42.1382L43.1654 29.2491L42.8826 31.5178H34.3666L33.3284 31.515L33.3289 31.5178H33.3064L33.5998 33.8892H41.633L42.5899 33.8919L42.3092 36.1606L30.9714 36.1617L29.292 24.2415C29.2217 23.7422 28.7938 23.3708 28.2901 23.3708H23.3347V24.2431C23.3347 25.0709 24.0061 25.7422 24.8338 25.7422H27.108L28.6928 36.9884C28.8174 37.8745 29.5757 38.533 30.4704 38.533L43.3452 38.5325C44.2511 38.5321 45.0152 37.8569 45.1261 36.9582L46.2384 27.9774L46.3747 26.8976H46.3719L46.3747 26.8749H34.2703Z" fill="#10B981" fill-opacity="0.2"/>
<path d="M29.6323 42.7312C29.6323 44.1748 30.8025 45.3448 32.246 45.3448C33.6895 45.3448 34.8602 44.1748 34.8602 42.7312C34.8602 41.2875 33.6896 40.1169 32.246 40.1169C30.8023 40.1169 29.6323 41.2875 29.6323 42.7312Z" fill="#10B981" fill-opacity="0.2"/>
<path d="M39.3015 42.7312C39.3015 44.1748 40.4715 45.3448 41.9157 45.3448C43.3588 45.3448 44.5294 44.1748 44.5294 42.7312C44.5294 41.2875 43.3588 40.1169 41.9157 40.1169C40.4715 40.1168 39.3015 41.2875 39.3015 42.7312Z" fill="#10B981" fill-opacity="0.2"/>
</svg>
