<svg width="729" height="700" viewBox="0 0 729 700" fill="none" xmlns="http://www.w3.org/2000/svg">
<g id="hero-animation" clip-path="url(#clip0_122_227)">
<g id="plants">
<path id="Path 421" d="M406.17 360.848L378.699 408.331L351.229 455.814H461.111L433.641 408.331L406.17 360.848Z" fill="#10B981"/>
<path id="Rectangle 48" d="M562.272 267.587H677.479V382.558H562.272V267.587Z" fill="#10B981"/>
<path id="Ellipse 68" d="M479.69 194.331C438.867 194.331 405.774 161.306 405.774 120.567C405.774 79.8279 438.867 46.8024 479.69 46.8024C520.513 46.8024 553.606 79.8279 553.606 120.567C553.606 161.306 520.513 194.331 479.69 194.331Z" fill="#10B981"/>
<path id="Path 422" d="M413.166 243.734C413.166 241.32 412.448 238.959 411.104 236.951C409.759 234.943 407.849 233.378 405.613 232.454C403.378 231.53 400.918 231.289 398.544 231.76C396.171 232.231 393.991 233.394 392.28 235.101C390.569 236.809 389.404 238.984 388.932 241.352C388.46 243.721 388.702 246.176 389.628 248.407C390.554 250.638 392.122 252.544 394.134 253.886C396.146 255.228 398.511 255.944 400.931 255.944C404.176 255.944 407.288 254.657 409.582 252.368C411.877 250.078 413.166 246.972 413.166 243.734ZM411.126 243.734C411.126 245.747 410.529 247.714 409.408 249.387C408.288 251.06 406.696 252.364 404.833 253.134C402.97 253.904 400.92 254.106 398.942 253.713C396.964 253.321 395.148 252.352 393.722 250.929C392.296 249.506 391.325 247.693 390.932 245.719C390.538 243.746 390.74 241.7 391.512 239.841C392.284 237.982 393.59 236.393 395.267 235.275C396.944 234.157 398.915 233.56 400.931 233.56C403.635 233.56 406.228 234.632 408.14 236.54C410.052 238.448 411.126 241.036 411.126 243.734Z" fill="#A3A3A3"/>
<path id="Path 423" d="M518.497 456.112L536.506 436.844L517.198 418.872L499.189 438.14L518.497 456.112ZM533.635 436.943L518.397 453.247L502.06 438.04L517.298 421.737L533.635 436.943Z" fill="#A3A3A3"/>
<path id="Path 424" d="M667.233 182.007L681.89 166.325L666.171 151.701L651.515 167.382L667.233 182.007ZM679.554 166.407L667.147 179.68L653.85 167.303L666.253 154.034L679.554 166.407Z" fill="#A3A3A3"/>
<path id="Path 425" d="M461.338 203.488C481.503 203.488 501.214 197.521 517.98 186.341C534.747 175.162 547.814 159.271 555.531 140.68C563.247 122.089 565.266 101.631 561.332 81.8949C557.399 62.1585 547.688 44.0294 533.43 29.8002C519.172 15.571 501.005 5.88085 481.228 1.95503C461.451 -1.97079 440.952 0.044084 422.322 7.74486C403.693 15.4456 387.77 28.4864 376.567 45.2182C365.364 61.9499 359.385 81.6211 359.385 101.744C359.385 128.728 370.127 154.608 389.246 173.688C408.366 192.769 434.299 203.488 461.338 203.488ZM461.338 2.03493C481.099 2.03493 500.417 7.88278 516.848 18.839C533.278 29.7952 546.085 45.3676 553.647 63.5871C561.209 81.8066 563.188 101.855 559.333 121.197C555.477 140.538 545.961 158.305 531.988 172.249C518.015 186.194 500.212 195.69 480.831 199.538C461.449 203.385 441.36 201.41 423.103 193.864C404.846 186.317 389.241 173.537 378.263 157.14C367.284 140.743 361.424 121.465 361.424 101.744C361.424 75.2997 371.951 49.9382 390.688 31.2391C409.426 12.54 434.839 2.03493 461.338 2.03493Z" fill="#A3A3A3"/>
<path id="Rectangle 50" d="M524.1 180.905L550.437 235.606L548.599 236.487L522.262 181.787L524.1 180.905Z" fill="#A3A3A3"/>
<path id="Rectangle 51" d="M530.18 308.405L531.151 310.195L415.14 372.85L414.17 371.06L530.18 308.405Z" fill="#A3A3A3"/>
<path id="Path 426" d="M529.647 383.576H678.499V235.029H529.647V383.576ZM676.46 381.541H531.686V237.064H676.46V381.541Z" fill="#A3A3A3"/>
<path id="Path 427" d="M308.908 456.831H462.877L385.893 323.764L308.908 456.831ZM459.345 454.797H312.441L385.893 327.834L459.345 454.797Z" fill="#A3A3A3"/>
<path id="Rectangle 53" d="M6.10352e-05 697.965H728.966V700H6.10352e-05V697.965Z" fill="#A3A3A3"/>
<path id="Path 438" d="M518.634 634.508C513.446 636.328 507.877 636.784 502.461 635.832C497.046 634.88 491.967 632.552 487.715 629.073C476.885 620.002 473.489 605.061 470.727 591.224L462.556 550.295L479.664 562.05C491.967 570.504 504.547 579.23 513.065 591.475C521.584 603.719 525.3 620.436 518.458 633.686" fill="#E5E5E5"/>
<path id="Path 439" d="M515.993 686.911C518.146 671.255 520.361 655.397 518.847 639.574C517.506 625.521 513.209 611.798 504.463 600.541C499.82 594.578 494.171 589.469 487.769 585.444C486.1 584.393 484.563 587.032 486.225 588.079C497.303 595.065 505.871 605.381 510.694 617.54C516.021 631.061 516.877 645.801 515.959 660.164C515.404 668.85 514.226 677.479 513.042 686.098C512.949 686.487 513.007 686.898 513.205 687.247C513.404 687.595 513.727 687.855 514.111 687.975C514.502 688.08 514.918 688.027 515.271 687.827C515.623 687.628 515.882 687.298 515.992 686.909L515.993 686.911Z" fill="#F5F5F5"/>
<path id="Path 440" d="M373.461 665.347C370.942 668.316 367.7 670.588 364.046 671.943C360.392 673.299 356.45 673.692 352.599 673.086C342.717 671.413 335.267 663.489 328.611 656.015L308.908 633.908L323.589 634.976C334.151 635.744 344.979 636.579 354.583 641.02C364.187 645.461 372.472 654.348 373.046 664.905" fill="#E5E5E5"/>
<path id="Path 441" d="M390.369 696.175C386.902 687.858 383.415 679.424 378.101 672.079C373.382 665.556 367.305 660.043 359.749 657.021C355.744 655.425 351.491 654.539 347.18 654.401C346.059 654.365 346.059 656.105 347.18 656.141C354.644 656.39 361.837 658.997 367.72 663.588C374.245 668.703 378.923 675.705 382.62 683.03C384.856 687.46 386.771 692.042 388.676 696.62C388.743 696.839 388.89 697.024 389.089 697.138C389.287 697.252 389.521 697.287 389.744 697.236C389.966 697.175 390.156 697.029 390.272 696.829C390.387 696.63 390.419 696.393 390.361 696.17L390.369 696.175Z" fill="#F5F5F5"/>
<path id="Path 442" d="M500.493 661.79C498.269 665.165 495.211 667.912 491.614 669.765C488.016 671.619 484.002 672.516 479.956 672.371C469.557 671.879 460.891 664.639 453.09 657.763L430.013 637.429L445.286 636.7C456.269 636.175 467.536 635.682 477.997 639.066C488.459 642.45 498.107 650.582 500.019 661.388" fill="#E5E5E5"/>
<path id="Path 443" d="M522.079 695.91C511.713 677.605 499.689 657.261 478.204 650.759C472.23 648.957 465.966 648.312 459.75 648.857C457.79 649.026 458.28 652.04 460.235 651.872C470.656 651.009 481.056 653.754 489.685 659.647C497.99 665.288 504.455 673.13 509.927 681.446C513.28 686.54 516.282 691.85 519.285 697.153C520.244 698.848 523.05 697.624 522.079 695.91Z" fill="#F5F5F5"/>
<path id="Path 461" d="M705.024 663.488C701.27 664.805 697.239 665.135 693.32 664.446C689.401 663.757 685.726 662.073 682.648 659.555C674.811 652.99 672.351 642.176 670.355 632.161L664.441 602.541L676.822 611.049C685.725 617.167 694.829 623.481 700.994 632.343C707.159 641.205 709.849 653.303 704.896 662.891" fill="#E5E5E5"/>
<path id="Path 462" d="M703.966 699.349C705.219 690.24 706.507 681.014 705.629 671.808C704.848 663.631 702.349 655.646 697.259 649.097C694.558 645.628 691.271 642.656 687.546 640.314C686.574 639.703 685.681 641.239 686.648 641.847C693.093 645.912 698.077 651.914 700.884 658.988C703.983 666.855 704.481 675.431 703.942 683.787C703.619 688.841 702.935 693.86 702.245 698.876C702.189 699.103 702.223 699.342 702.338 699.545C702.454 699.748 702.643 699.9 702.867 699.968C703.094 700.03 703.337 699.999 703.542 699.883C703.747 699.767 703.898 699.574 703.962 699.348L703.966 699.349Z" fill="#F5F5F5"/>
<path id="Path 481" d="M611.744 699.44C612.013 699.002 618.355 688.434 620.554 666.488C622.57 646.353 621.273 612.417 603.638 565.077C570.225 475.396 611.337 403.035 611.757 402.315L609.729 401.141C609.627 401.324 599.014 419.772 592.748 449.15C584.467 488.098 587.483 528.594 601.44 565.893C634.795 655.422 609.997 697.803 609.743 698.221L611.744 699.44Z" fill="#A3A3A3"/>
<path id="Ellipse 75" d="M576.753 453.194C568.337 453.194 561.516 446.386 561.516 437.988C561.516 429.591 568.337 422.783 576.753 422.783C585.168 422.783 591.99 429.591 591.99 437.988C591.99 446.386 585.168 453.194 576.753 453.194Z" fill="#10B981"/>
<path id="Ellipse 78" d="M621.293 571.333C612.878 571.333 606.056 564.526 606.056 556.128C606.056 547.73 612.878 540.922 621.293 540.922C629.708 540.922 636.53 547.73 636.53 556.128C636.53 564.526 629.708 571.333 621.293 571.333Z" fill="#10B981"/>
<path id="Path 482" d="M603.958 698.985C603.958 698.985 616.96 667.046 577.955 643.092L603.958 698.985Z" fill="#E5E5E5"/>
<path id="Path 483" d="M619.948 698.404C619.948 698.404 623.914 675.639 654.612 675.835L619.948 698.404Z" fill="#E5E5E5"/>
<path id="Path 484" d="M584.447 513.161C584.447 510.746 583.729 508.386 582.385 506.378C581.041 504.37 579.13 502.805 576.894 501.881C574.659 500.957 572.199 500.715 569.826 501.186C567.452 501.657 565.272 502.82 563.561 504.528C561.85 506.235 560.685 508.411 560.213 510.779C559.741 513.147 559.983 515.602 560.909 517.833C561.835 520.064 563.403 521.971 565.415 523.313C567.427 524.654 569.793 525.37 572.212 525.37C575.457 525.37 578.569 524.084 580.863 521.794C583.158 519.505 584.447 516.399 584.447 513.161ZM582.408 513.161C582.408 515.173 581.81 517.14 580.689 518.814C579.569 520.487 577.977 521.791 576.114 522.561C574.251 523.331 572.201 523.533 570.223 523.14C568.246 522.747 566.429 521.778 565.003 520.355C563.577 518.933 562.606 517.12 562.213 515.146C561.82 513.172 562.021 511.127 562.793 509.267C563.565 507.408 564.872 505.819 566.548 504.701C568.225 503.583 570.196 502.987 572.212 502.987C574.916 502.987 577.51 504.059 579.422 505.967C581.334 507.875 582.408 510.463 582.408 513.161Z" fill="#A3A3A3"/>
<path id="Path 485" d="M621.293 475.475C621.293 473.06 620.575 470.7 619.231 468.692C617.887 466.684 615.976 465.119 613.74 464.195C611.505 463.271 609.045 463.029 606.672 463.5C604.298 463.971 602.118 465.134 600.407 466.842C598.696 468.549 597.531 470.725 597.059 473.093C596.587 475.461 596.829 477.916 597.755 480.147C598.681 482.378 600.249 484.285 602.261 485.627C604.273 486.968 606.639 487.684 609.058 487.684C612.303 487.684 615.415 486.398 617.709 484.108C620.004 481.819 621.293 478.713 621.293 475.475ZM619.254 475.475C619.254 477.487 618.656 479.454 617.535 481.128C616.415 482.801 614.823 484.105 612.96 484.875C611.097 485.645 609.047 485.846 607.069 485.454C605.092 485.061 603.275 484.092 601.849 482.669C600.423 481.246 599.452 479.434 599.059 477.46C598.666 475.486 598.867 473.44 599.639 471.581C600.411 469.722 601.718 468.133 603.394 467.015C605.071 465.897 607.042 465.301 609.058 465.301C611.762 465.301 614.356 466.372 616.268 468.281C618.18 470.189 619.254 472.776 619.254 475.475Z" fill="#A3A3A3"/>
</g>
<g id="girl ideation">
<path id="Path 486" d="M78.5915 446.267C80.1132 447.358 81.8579 448.099 83.7005 448.437C85.5431 448.775 87.4378 448.702 89.2487 448.223C92.499 447.36 95.2728 445.245 96.9599 442.341C98.6471 439.438 99.1094 435.985 98.2452 432.741C98.2012 432.576 98.1539 432.412 98.1033 432.249C97.9154 431.656 97.6823 431.077 97.406 430.519L122.336 318.823C122.717 317.548 122.843 316.21 122.707 314.887C122.571 313.563 122.174 312.28 121.541 311.109C120.907 309.938 120.049 308.903 119.015 308.064C117.981 307.224 116.791 306.596 115.513 306.215C114.236 305.834 112.896 305.708 111.569 305.844C110.243 305.98 108.957 306.376 107.784 307.008C106.611 307.64 105.574 308.497 104.732 309.529C103.891 310.561 103.261 311.748 102.88 313.023C102.859 313.093 102.839 313.163 102.82 313.233L79.2868 425.265C77.5188 426.363 76.0491 427.878 75.0078 429.677C73.9665 431.477 73.3857 433.505 73.3169 435.581C73.248 437.658 73.6933 439.72 74.6131 441.584C75.5329 443.448 76.899 445.057 78.5905 446.268L78.5915 446.267Z" fill="#FDE047"/>
<path id="Path 487" d="M45.4853 685.902H59.0063L65.4396 633.855H45.4833L45.4853 685.902Z" fill="#FDE047"/>
<path id="Path 490" d="M42.0372 698.983H85.6355V698.432C85.6352 693.941 83.8474 689.634 80.6654 686.459C77.4834 683.283 73.1676 681.498 68.6674 681.498H42.0372V698.983Z" fill="#60A5FA"/>
<path id="Path 491" d="M181.043 685.477L193.908 681.323L183.977 629.827L164.99 635.957L181.043 685.477Z" fill="#FDE047"/>
<path id="Path 494" d="M181.796 698.984L223.274 685.592L223.105 685.068C221.72 680.795 218.69 677.246 214.683 675.202C210.676 673.157 206.019 672.785 201.737 674.167L176.401 682.346L181.796 698.984Z" fill="#60A5FA"/>
<path id="Ellipse 82" d="M120.383 288.681C107.785 288.681 97.5712 278.488 97.5712 265.916C97.5712 253.343 107.785 243.15 120.383 243.15C132.982 243.15 143.195 253.343 143.195 265.916C143.195 278.488 132.982 288.681 120.383 288.681Z" fill="#FDE047"/>
<path id="Path 495" d="M89.7179 354.412C86.5461 342.653 101.072 305.778 102.258 301.098C107.922 299.793 121.044 302.294 129.112 300.637C140.581 310.201 149.706 323.863 156.01 330.346C162.566 337.087 166.793 341.656 160.019 357.432C151.806 376.555 153.631 396.588 153.631 396.588L148.156 444.849C148.156 444.849 170.968 508.591 169.144 551.389L190.132 656.106C190.132 656.106 183.744 667.033 170.97 661.569C170.97 661.569 140.858 607.848 143.595 568.688L110.746 495.839C110.746 495.839 87.9337 565.045 81.5463 571.419L65.1217 669.764C65.1217 669.764 49.6095 674.317 42.3096 669.764C42.3096 669.764 39.5722 575.061 55.0843 559.581C55.0843 559.581 70.5965 494.018 66.9466 476.716C63.2967 459.415 62.3842 433.008 89.7586 409.332C89.7586 409.332 89.4834 409.457 97.971 393.852L89.7179 354.412Z" fill="#60A5FA"/>
<path id="Path 496" d="M108.483 230.728C109.763 230.731 111.039 230.858 112.293 231.107C114.561 230.009 117.047 229.437 119.568 229.434H120.228C132.958 229.434 143.277 240.931 143.277 255.109H139.011L138.322 249.877L137.313 255.109H133.76C134.865 259.308 135.42 263.632 135.41 267.973V294.107H128.962L125.228 284.424L126.162 294.107H84.7098L81.3158 285.304L82.1641 294.107H77.4966V273.586C77.4976 249.916 91.3704 230.728 108.483 230.728Z" fill="#60A5FA"/>
<path id="Path 497" d="M156.046 459.202C157.899 459.479 159.791 459.344 161.585 458.806C163.379 458.267 165.031 457.339 166.423 456.088C167.66 454.975 168.665 453.63 169.381 452.129C170.096 450.628 170.509 449.002 170.595 447.342C170.681 445.683 170.438 444.022 169.881 442.456C169.324 440.89 168.463 439.449 167.348 438.215C167.232 438.087 167.114 437.961 166.993 437.838C166.554 437.395 166.082 436.987 165.58 436.617L136.675 325.883C136.433 324.574 135.934 323.327 135.208 322.211C134.482 321.095 133.543 320.132 132.444 319.378C131.346 318.625 130.109 318.094 128.805 317.817C127.501 317.541 126.155 317.523 124.844 317.765C123.533 318.007 122.283 318.505 121.164 319.229C120.046 319.954 119.082 320.891 118.326 321.987C117.571 323.084 117.04 324.318 116.762 325.619C116.485 326.921 116.467 328.264 116.71 329.572C116.724 329.648 116.739 329.724 116.755 329.8L147.062 440.198C145.991 441.98 145.377 443.997 145.273 446.072C145.17 448.147 145.58 450.216 146.469 452.095C147.357 453.974 148.696 455.605 150.366 456.845C152.037 458.084 153.988 458.894 156.046 459.202Z" fill="#FDE047"/>
</g>
</g>
<defs>
<clipPath id="clip0_122_227">
<rect width="728.966" height="700" fill="white" transform="matrix(-1 0 0 1 728.966 0)"/>
</clipPath>
</defs>
</svg>
