<svg width="800" height="492" viewBox="0 0 800 492" fill="none" xmlns="http://www.w3.org/2000/svg">
<g id="service-animation" clip-path="url(#clip0_158_351)">
<path id="Vector" d="M669.518 402.563H130.483C118.955 402.563 109.576 393.185 109.576 381.656V316.779H690.425V381.656C690.425 393.185 681.046 402.563 669.518 402.563Z" fill="#E5E5E5"/>
<path id="Vector_2" d="M469.764 391.711H332.303V489.897H469.764V391.711Z" fill="#E5E5E5"/>
<path id="Vector_3" d="M478.032 477.495H324.035V489.897H478.032V477.495Z" fill="#E5E5E5"/>
<path id="Vector_4" d="M689.908 344.168H109.576V14.3474C109.576 6.4364 116.012 0 123.923 0H675.56C683.471 0 689.908 6.4364 689.908 14.3474V344.168Z" fill="#1E3A8A"/>
<path id="Vector_5" d="M401.034 11.8856C403.317 11.8856 405.168 10.0347 405.168 7.75146C405.168 5.46823 403.317 3.61731 401.034 3.61731C398.75 3.61731 396.899 5.46823 396.899 7.75146C396.899 10.0347 398.75 11.8856 401.034 11.8856Z" fill="white"/>
<path id="Vector_6" d="M675.955 14.9863H123.012V326.081H675.955V14.9863Z" fill="white"/>
<path id="Vector_7" d="M611.241 250.024C637.278 250.024 658.385 228.917 658.385 202.88C658.385 176.843 637.278 155.736 611.241 155.736C585.204 155.736 564.097 176.843 564.097 202.88C564.097 228.917 585.204 250.024 611.241 250.024Z" fill="#10B981"/>
<path id="Vector_8" d="M800 490.204C800 490.684 799.611 491.072 799.132 491.072H0V489.336H799.132C799.611 489.336 800 489.725 800 490.204Z" fill="#E5E5E5"/>
<g id="Group">
<path id="Vector_9" d="M135.345 196.024L129.388 216.873L153.215 218.362L151.726 193.79L135.345 196.024Z" fill="#FDE047"/>
<g id="Group_2">
<g id="Group_3">
<path id="uuid-a6c07e27-609a-42c1-9803-308006772003-350" d="M234.334 281.133C239.988 283.064 245.567 281.711 246.795 278.112C248.023 274.513 244.435 270.032 238.778 268.102C236.529 267.3 234.121 267.048 231.755 267.368L207.694 259.491L204.238 270.861L228.325 277.419C230.002 279.119 232.063 280.393 234.334 281.133Z" fill="#FDE047"/>
<path id="Vector_10" d="M154.492 212.249C154.492 212.249 139.577 230.192 148.206 237.617C156.834 245.041 195.367 272.524 195.367 272.524L210.389 274.863L214.231 260.342L180.311 235.207L154.492 212.249Z" fill="#10B981"/>
</g>
<path id="Vector_11" d="M194.011 403.266L202.301 433.984L215.465 431.546L212.54 399.853L194.011 403.266Z" fill="#FDE047"/>
<path id="Vector_12" d="M204.251 432.034L199.375 433.009L195.474 446.174C195.474 446.174 201.813 448.612 201.813 453.488C201.813 458.364 204.251 461.777 214.003 461.289C223.755 460.802 224.73 461.289 224.73 457.389C224.73 453.488 217.416 433.009 217.416 433.009C217.416 433.009 217.903 424.72 212.052 425.208C206.201 425.695 204.251 432.034 204.251 432.034Z" fill="#60A5FA"/>
<path id="Vector_13" d="M149.438 402.788L150.004 434.6L163.366 435.439L168.24 403.986L149.438 402.788Z" fill="#FDE047"/>
<path id="Vector_14" d="M152.37 433.183L147.403 432.943L140.417 444.763C140.417 444.763 145.972 448.67 144.785 453.399C143.599 458.128 145.133 462.032 154.71 463.932C164.288 465.832 165.115 466.542 166.064 462.759C167.013 458.975 164.902 437.332 164.902 437.332C164.902 437.332 167.392 429.411 161.598 428.46C155.804 427.509 152.37 433.183 152.37 433.183Z" fill="#60A5FA"/>
<path id="Vector_15" d="M155.004 212.619L128.675 210.668L122.824 217.982C122.824 217.982 119.898 267.229 121.848 272.105C123.799 276.981 122.336 304.773 122.336 304.773L188.712 300.141L174.02 264.791L174.508 244.312L161.343 219.445L155.004 212.619Z" fill="#10B981"/>
<path id="Vector_16" d="M125.262 294.534C125.262 294.534 114.535 310.137 118.435 318.426C122.336 326.715 148.795 374.844 148.795 374.844L145.382 419.702L168.786 417.751L172.687 369.48L156.467 330.128L159.393 325.74L183.772 355.483L192.549 407.167L215.953 404.241L203.276 328.665L188.46 299.536L125.262 294.534Z" fill="#60A5FA"/>
<path id="Vector_17" d="M122.97 182.759C127.962 182.759 132.009 178.712 132.009 173.719C132.009 168.727 127.962 164.679 122.97 164.679C117.977 164.679 113.93 168.727 113.93 173.719C113.93 178.712 117.977 182.759 122.97 182.759Z" fill="#60A5FA"/>
<path id="Vector_18" d="M143.846 207.232C154.718 207.232 163.532 198.418 163.532 187.545C163.532 176.673 154.718 167.859 143.846 167.859C132.973 167.859 124.159 176.673 124.159 187.545C124.159 198.418 132.973 207.232 143.846 207.232Z" fill="#FDE047"/>
<path id="Vector_19" d="M137.604 209.128C135.511 210.236 129.624 206.167 127.518 200.714C126.162 197.207 122.868 197.79 120.765 193.416C119.54 190.867 123.198 188.373 122.595 186.169C121.502 182.176 122.872 178.603 123.047 178.165C124.554 174.387 126.776 174.475 128.568 170.078C129.647 167.43 128.955 167.12 129.862 165.765C132.479 161.856 140.072 161.708 145.427 163.556C147.28 164.196 151.744 160.768 155.368 163.251C159.637 166.177 162.477 174.61 161.824 176.155C161.427 177.094 159.217 176.138 154.62 176.86C150.364 177.529 155.981 180.709 151.191 181.793C145.527 183.075 143.821 181.905 142.252 183.697C140.592 185.591 140.286 189.425 141.8 191.701C142.551 192.83 143.52 193.228 143.398 194.014C143.177 195.449 141.902 194.669 141.484 196.191C140.998 197.962 145.032 200.283 144.682 200.819C144.611 200.927 144.309 201.044 140.37 199.525C138.797 198.919 138.19 198.396 138.014 198.589C137.728 198.903 136.314 202.047 137.921 203.384C140.422 205.465 138.688 206.291 139.828 207.921C141.005 209.602 138.934 208.423 137.604 209.128Z" fill="#60A5FA"/>
<g id="Group_4">
<path id="uuid-cdcc4a7b-c7e9-4136-bdd1-e7c84b73eb6c-351" d="M142.213 322.873C145.355 327.955 150.524 330.453 153.758 328.453C156.992 326.453 157.066 320.713 153.922 315.629C152.694 313.582 150.994 311.858 148.963 310.602L135.379 289.237L125.49 295.825L139.931 316.187C140.147 318.566 140.93 320.859 142.213 322.873Z" fill="#FDE047"/>
<path id="Vector_20" d="M124.286 218.957C124.286 218.957 101.37 223.346 103.32 234.56C105.27 245.775 117.581 291.476 117.581 291.476L127.699 302.823L139.889 294.046L129.65 253.089L124.286 218.957Z" fill="#10B981"/>
</g>
</g>
</g>
<g id="Group_5">
<path id="Vector_21" d="M665.573 228.323C664.672 226.803 660.773 228.43 660.057 227.051C659.342 225.677 662.965 223.583 665.034 218.8C665.408 217.938 667.759 212.503 666.018 210.825C662.718 207.646 647.617 220.765 642.332 216.472C641.172 215.53 640.362 213.649 636.852 210.595C635.455 209.381 634.611 208.832 633.794 209.036C632.634 209.326 632.542 210.878 631.299 213.929C629.434 218.505 628.331 218.229 627.245 221.88C626.438 224.59 626.623 226.166 625.673 226.473C624.33 226.907 623.094 224.033 621.392 224.29C619.655 224.553 618.605 227.9 618.274 230.406C617.651 235.109 619.378 238.212 620.336 241.476C621.376 245.022 621.993 250.415 619.591 258.05L595.812 325.045C601.062 311.298 616.262 273.613 622.649 259.609C624.493 255.566 626.529 251.466 630.709 249.847C634.733 248.289 640.26 249.22 647.307 247.522C648.13 247.324 650.414 246.743 650.701 245.399C650.939 244.289 649.595 243.669 649.802 242.629C650.079 241.234 652.72 241.217 655.966 239.607C658.255 238.472 659.681 237.123 660.908 235.962C661.277 235.612 666.773 230.346 665.573 228.323Z" fill="#E5E5E5"/>
<path id="Vector_22" d="M572.022 263.592C571.016 263.596 570.69 265.979 569.806 265.933C568.926 265.887 568.943 263.505 567.193 261.109C566.877 260.677 564.888 257.955 563.562 258.325C561.05 259.028 563.132 270.225 559.5 271.58C558.703 271.877 557.546 271.732 555.034 272.574C554.035 272.909 553.522 273.165 553.387 273.625C553.194 274.278 553.929 274.77 555.068 276.261C556.776 278.497 556.322 278.958 557.801 280.545C558.898 281.723 559.725 282.087 559.602 282.641C559.427 283.426 557.66 283.203 557.295 284.113C556.923 285.041 558.263 286.522 559.397 287.408C561.526 289.071 563.547 289.118 565.425 289.59C567.466 290.103 570.291 291.356 573.345 294.738L599.366 325.739C594.133 319.196 580.023 300.862 574.992 293.687C573.54 291.615 572.115 289.433 572.527 286.914C572.923 284.489 574.975 282.045 576.175 278.097C576.315 277.636 576.688 276.347 576.112 275.819C575.636 275.382 574.944 275.862 574.493 275.461C573.888 274.922 574.642 273.621 574.788 271.563C574.892 270.112 574.641 269.023 574.425 268.086C574.36 267.804 573.361 263.587 572.022 263.592Z" fill="#E5E5E5"/>
<path id="Vector_23" d="M592.088 268.097L591.482 262.687L591.759 262.277C593.041 260.38 593.694 258.528 593.701 256.77C593.703 256.491 593.69 256.211 593.677 255.927C593.624 254.798 593.559 253.396 594.29 251.76C594.701 250.849 595.853 248.738 597.584 248.999C598.051 249.065 598.403 249.279 598.671 249.53C598.71 249.467 598.751 249.404 598.794 249.336C599.333 248.513 599.76 248.161 600.172 247.821C600.488 247.56 600.814 247.291 601.326 246.654C601.551 246.374 601.726 246.129 601.873 245.922C602.321 245.298 602.907 244.554 603.938 244.567C605.041 244.619 605.618 245.53 606.001 246.134C606.684 247.21 606.993 247.986 607.198 248.5C607.273 248.688 607.358 248.9 607.401 248.965C607.756 249.488 610.644 248.999 611.732 248.822C614.175 248.414 616.29 248.062 617.161 249.603C617.785 250.705 617.322 252.163 615.741 254.051C615.249 254.639 614.725 255.086 614.26 255.436C614.645 255.665 614.99 256.018 615.13 256.572C615.459 257.883 614.332 259.197 611.781 260.482C611.148 260.804 610.295 261.232 609.1 261.438C608.537 261.535 608.03 261.558 607.597 261.572C607.587 261.822 607.529 262.094 607.376 262.373C606.928 263.196 605.995 263.588 604.59 263.494C603.044 263.413 601.77 263.118 600.647 262.859C599.666 262.635 598.821 262.444 598.158 262.488C596.927 262.588 595.979 263.572 594.866 264.85L592.088 268.097Z" fill="#E5E5E5"/>
<path id="Vector_24" d="M594.9 235.887L589.82 237.846L589.354 237.682C587.194 236.923 585.237 236.761 583.535 237.2C583.264 237.269 582.997 237.353 582.725 237.438C581.647 237.775 580.306 238.194 578.539 237.901C577.553 237.735 575.219 237.156 575.033 235.415C574.978 234.947 575.096 234.552 575.27 234.229C575.2 234.207 575.129 234.184 575.052 234.16C574.119 233.847 573.67 233.523 573.237 233.211C572.904 232.972 572.561 232.724 571.815 232.391C571.487 232.244 571.206 232.137 570.968 232.047C570.251 231.772 569.382 231.395 569.133 230.393C568.904 229.314 569.64 228.524 570.126 228.001C570.994 227.067 571.666 226.571 572.112 226.242C572.275 226.122 572.458 225.987 572.51 225.928C572.925 225.452 571.72 222.783 571.273 221.776C570.259 219.515 569.381 217.559 570.651 216.326C571.559 215.442 573.086 215.521 575.314 216.571C576.008 216.898 576.572 217.291 577.029 217.652C577.154 217.221 577.407 216.798 577.907 216.522C579.092 215.872 580.649 216.629 582.539 218.77C583.011 219.301 583.641 220.017 584.144 221.121C584.38 221.641 584.532 222.125 584.654 222.541C584.899 222.487 585.177 222.475 585.486 222.551C586.396 222.776 587.011 223.579 587.277 224.962C587.591 226.478 587.628 227.785 587.663 228.937C587.694 229.943 587.724 230.808 587.935 231.439C588.343 232.604 589.537 233.271 591.054 234.024L594.9 235.887Z" fill="#E5E5E5"/>
<path id="Vector_25" d="M592.088 219.95L591.482 214.54L591.759 214.13C593.041 212.234 593.694 210.382 593.701 208.624C593.703 208.344 593.69 208.065 593.677 207.78C593.624 206.652 593.559 205.249 594.29 203.614C594.701 202.702 595.853 200.592 597.584 200.853C598.051 200.918 598.403 201.132 598.671 201.383C598.71 201.32 598.751 201.258 598.794 201.19C599.333 200.367 599.76 200.014 600.172 199.675C600.488 199.413 600.814 199.144 601.326 198.507C601.551 198.228 601.726 197.982 601.873 197.776C602.321 197.151 602.907 196.407 603.938 196.42C605.041 196.472 605.618 197.384 606.001 197.987C606.684 199.063 606.993 199.839 607.198 200.354C607.273 200.542 607.358 200.753 607.401 200.819C607.756 201.341 610.644 200.853 611.732 200.675C614.175 200.268 616.29 199.915 617.161 201.456C617.785 202.558 617.322 204.016 615.741 205.905C615.249 206.492 614.725 206.939 614.26 207.289C614.645 207.519 614.99 207.871 615.13 208.425C615.459 209.737 614.332 211.05 611.781 212.336C611.148 212.657 610.295 213.085 609.1 213.292C608.537 213.388 608.03 213.412 607.597 213.425C607.587 213.676 607.529 213.947 607.376 214.227C606.928 215.05 605.995 215.441 604.59 215.347C603.044 215.266 601.77 214.971 600.647 214.713C599.666 214.488 598.821 214.297 598.158 214.342C596.927 214.441 595.979 215.426 594.866 216.703L592.088 219.95Z" fill="#E5E5E5"/>
<path id="Vector_26" d="M597.624 324.957L596.49 324.247L595.168 324.398C595.147 324.275 595.075 323.993 594.967 323.552C594.375 321.133 592.572 313.772 591.067 302.18C590.017 294.087 589.423 285.768 589.3 277.448C589.177 269.115 589.572 262.807 589.888 257.737C590.127 253.913 590.417 250.271 590.701 246.724C591.459 237.247 592.173 228.296 591.642 218.385C591.524 216.173 591.277 211.568 588.587 206.667C587.026 203.825 584.876 201.302 582.196 199.171L583.863 197.076C586.821 199.432 589.199 202.227 590.933 205.382C593.916 210.815 594.185 215.833 594.314 218.244C594.855 228.33 594.132 237.368 593.367 246.936C593.085 250.47 592.795 254.096 592.557 257.904C592.244 262.927 591.853 269.181 591.975 277.406C592.095 285.627 592.683 293.844 593.718 301.835C595.205 313.281 596.982 320.532 597.566 322.915C597.877 324.187 597.942 324.453 597.624 324.957Z" fill="#E5E5E5"/>
<path id="Vector_27" d="M577.291 203.421C577.181 203.421 577.07 203.418 576.958 203.41C574.68 203.287 572.571 201.924 570.688 199.359C569.805 198.152 569.353 196.775 568.451 194.03C568.312 193.607 567.633 191.46 567.22 188.505C566.95 186.575 566.983 185.768 567.366 185.055C567.791 184.261 568.478 183.707 569.251 183.333C569.217 183.077 569.244 182.814 569.355 182.544C569.811 181.429 571.023 181.575 571.679 181.646C572.011 181.688 572.425 181.743 572.871 181.719C573.574 181.685 573.951 181.476 574.523 181.163C575.071 180.862 575.751 180.489 576.761 180.282C578.751 179.867 580.419 180.431 580.969 180.617C583.862 181.581 585.288 183.83 586.939 186.434C587.268 186.956 588.398 188.858 589.143 191.465C589.681 193.346 589.606 194.181 589.444 194.803C589.115 196.08 588.338 196.812 586.364 198.426C584.303 200.116 583.269 200.962 582.381 201.477C580.313 202.671 579.015 203.421 577.291 203.421Z" fill="#E5E5E5"/>
</g>
<g id="Group_6">
<path id="Vector_28" d="M459.288 277.715H249.411C240.962 277.715 234.088 270.84 234.088 262.392V103.69C234.088 95.2417 240.962 88.3676 249.411 88.3676H459.288C467.737 88.3676 474.61 95.2417 474.61 103.69V262.392C474.61 270.84 467.737 277.715 459.288 277.715Z" fill="white"/>
<path id="Vector_29" d="M459.288 277.715H249.411C240.962 277.715 234.088 270.84 234.088 262.392V103.69C234.088 95.2417 240.962 88.3676 249.411 88.3676H459.288C467.737 88.3676 474.61 95.2417 474.61 103.69V262.392C474.61 270.84 467.737 277.715 459.288 277.715ZM249.411 90.9263C242.373 90.9263 236.647 96.6522 236.647 103.69V262.392C236.647 269.43 242.373 275.156 249.411 275.156H459.288C466.326 275.156 472.051 269.43 472.051 262.392V103.69C472.051 96.6522 466.326 90.9263 459.288 90.9263H249.411Z" fill="#1E3A8A"/>
<path id="Vector_30" d="M436.229 107.558C438.349 107.558 440.067 105.84 440.067 103.72C440.067 101.6 438.349 99.8818 436.229 99.8818C434.109 99.8818 432.391 101.6 432.391 103.72C432.391 105.84 434.109 107.558 436.229 107.558Z" fill="#1E3A8A"/>
<path id="Vector_31" d="M446.464 107.558C448.584 107.558 450.302 105.84 450.302 103.72C450.302 101.6 448.584 99.8818 446.464 99.8818C444.344 99.8818 442.626 101.6 442.626 103.72C442.626 105.84 444.344 107.558 446.464 107.558Z" fill="#1E3A8A"/>
<path id="Vector_32" d="M456.699 107.558C458.819 107.558 460.537 105.84 460.537 103.72C460.537 101.6 458.819 99.8818 456.699 99.8818C454.579 99.8818 452.861 101.6 452.861 103.72C452.861 105.84 454.579 107.558 456.699 107.558Z" fill="#1E3A8A"/>
<path id="Vector_33" d="M255.838 165.77C254.78 165.77 253.919 166.63 253.919 167.689C253.919 168.205 254.118 168.682 254.48 169.034C254.844 169.408 255.322 169.608 255.838 169.608H454.14C455.199 169.608 456.059 168.747 456.059 167.689C456.059 167.173 455.86 166.695 455.498 166.343C455.134 165.969 454.656 165.77 454.14 165.77H255.838Z" fill="#E5E5E5"/>
<path id="Vector_34" d="M418.318 165.13V170.247H255.838C255.134 170.247 254.494 169.966 254.034 169.493C253.56 169.032 253.279 168.392 253.279 167.689C253.279 166.281 254.431 165.13 255.838 165.13H418.318Z" fill="#10B981"/>
<path id="Vector_35" d="M450.942 155.535H425.354C422.533 155.535 420.237 153.239 420.237 150.417C420.237 147.595 422.533 145.3 425.354 145.3H450.942C453.763 145.3 456.059 147.595 456.059 150.417C456.059 153.239 453.763 155.535 450.942 155.535Z" fill="#E5E5E5"/>
<path id="Vector_36" d="M283.344 128.668H257.757C254.935 128.668 252.639 126.373 252.639 123.55C252.639 120.728 254.935 118.433 257.757 118.433H283.344C286.166 118.433 288.462 120.728 288.462 123.55C288.462 126.373 286.166 128.668 283.344 128.668Z" fill="#E5E5E5"/>
<path id="Vector_37" d="M255.838 223.341C254.78 223.341 253.919 224.202 253.919 225.26C253.919 225.776 254.118 226.254 254.48 226.606C254.844 226.979 255.322 227.179 255.838 227.179H454.14C455.199 227.179 456.059 226.318 456.059 225.26C456.059 224.744 455.86 224.267 455.498 223.915C455.134 223.541 454.656 223.341 454.14 223.341H255.838Z" fill="#E5E5E5"/>
<path id="Vector_38" d="M319.806 222.702V227.819H255.838C255.134 227.819 254.494 227.538 254.034 227.064C253.56 226.604 253.279 225.964 253.279 225.26C253.279 223.853 254.431 222.702 255.838 222.702H319.806Z" fill="#10B981"/>
<path id="Vector_39" d="M450.942 213.106H425.354C422.533 213.106 420.237 210.811 420.237 207.989C420.237 205.166 422.533 202.871 425.354 202.871H450.942C453.763 202.871 456.059 205.166 456.059 207.989C456.059 210.811 453.763 213.106 450.942 213.106Z" fill="#E5E5E5"/>
</g>
</g>
<defs>
<clipPath id="clip0_158_351">
<rect width="800" height="491.072" fill="white"/>
</clipPath>
</defs>
</svg>
