<svg width="56" height="56" viewBox="0 0 56 56" fill="none" xmlns="http://www.w3.org/2000/svg">
<g clip-path="url(#clip0_175_386)">
<path d="M28.9789 15.7181C28.2575 15.4602 27.4606 15.8377 27.2033 16.5596C26.9458 17.2814 27.3229 18.0779 28.0448 18.3352C28.7666 18.5931 29.563 18.2156 29.8209 17.4937C30.0783 16.7724 29.7007 15.9756 28.9789 15.7181Z" fill="#10B981" fill-opacity="0.2"/>
<path d="M31.8733 23.1676C31.8455 22.8209 32.0071 22.4909 32.2895 22.2884C32.5754 22.0833 32.8453 21.8542 33.0963 21.6035C33.156 21.5433 33.2229 21.4924 33.2937 21.4498C33.2959 21.4485 33.298 21.4469 33.3002 21.4451C33.5182 21.3168 33.7781 21.2731 34.0301 21.3357L35.4789 21.6944C35.966 21.8153 36.4645 21.5471 36.6333 21.0748L37.361 19.0364C37.5297 18.5639 37.313 18.0409 36.8603 17.8259L35.5112 17.186C35.1979 17.0375 34.9929 16.7329 34.9585 16.3874C34.9233 16.0342 34.859 15.6863 34.7675 15.3468C34.6774 15.0112 34.7612 14.6529 35.0023 14.4028L36.0382 13.327C36.3857 12.9657 36.4032 12.3997 36.0785 12.0173L34.677 10.3677C34.3526 9.98578 33.7908 9.91162 33.378 10.1964L32.1623 11.0362C31.9534 11.1804 31.6992 11.2395 31.4542 11.2053C31.4366 11.2027 31.4199 11.1977 31.4027 11.1942C31.332 11.18 31.2616 11.1624 31.1947 11.1319C31.0307 11.0569 30.8625 10.9882 30.6896 10.9268C30.5166 10.865 30.3429 10.8114 30.1691 10.7655C29.8344 10.6776 29.5765 10.411 29.4804 10.0789L29.071 8.65895C28.9319 8.17704 28.4504 7.87878 27.957 7.9689L25.8281 8.35806C25.3346 8.44818 24.9896 8.89749 25.0303 9.39734L25.1504 10.8855C25.1783 11.2322 25.0165 11.5622 24.7341 11.7652C24.4483 11.9698 24.1784 12.1985 23.9278 12.4497C23.6824 12.6951 23.3304 12.8012 22.994 12.7174L21.5449 12.3587C21.0578 12.2381 20.5587 12.5059 20.3905 12.9779L19.6627 15.0167C19.4941 15.4892 19.7108 16.0122 20.1639 16.2273L21.5126 16.8671C21.8259 17.0156 22.0314 17.3202 22.0658 17.6658C22.101 18.0185 22.1649 18.3669 22.2564 18.7064C22.3465 19.042 22.2628 19.4003 22.0216 19.6509L20.9857 20.7263C20.6382 21.0876 20.6205 21.6536 20.9454 22.0359L22.3465 23.6855C22.6718 24.0675 23.2331 24.1416 23.6459 23.8564L24.8616 23.0175C25.07 22.8733 25.3241 22.8137 25.5688 22.8479C25.5873 22.8505 25.6049 22.856 25.6228 22.8595C25.6931 22.8738 25.7626 22.8913 25.8292 22.9219C25.993 22.9965 26.1613 23.0652 26.3343 23.127C26.5072 23.1888 26.6806 23.2419 26.8548 23.2879C27.1895 23.3758 27.4478 23.6428 27.5435 23.9748L27.9529 25.3944C28.0918 25.8763 28.5734 26.1745 29.0669 26.0845L31.1958 25.6952C31.6892 25.6052 32.0343 25.1559 31.9939 24.6564L31.8733 23.1676ZM31.4953 18.0916C30.9078 19.7368 29.0917 20.5968 27.4469 20.0098C25.8021 19.4228 24.9417 17.6067 25.5287 15.9618C26.1158 14.317 27.9317 13.4561 29.5766 14.0436C31.2214 14.6307 32.0823 16.4468 31.4953 18.0916Z" fill="#10B981" fill-opacity="0.2"/>
<path d="M40.3127 30.7943L39.8526 30.0301C39.7964 29.9366 39.7977 29.8206 39.8556 29.7349C39.9346 29.6177 40.0067 29.494 40.0702 29.368C40.1336 29.2418 40.1898 29.1101 40.2367 28.9771C40.271 28.8793 40.3633 28.8089 40.4718 28.7982L41.3593 28.7114C41.9429 28.6539 42.3736 28.1506 42.3398 27.5649C42.3175 27.1782 42.0879 26.8293 41.7415 26.6551C41.5849 26.5766 41.4095 26.5367 41.2335 26.5397L40.3418 26.556C40.295 26.5569 40.2482 26.5461 40.207 26.5256C40.1539 26.499 40.1122 26.4573 40.0874 26.4055C39.9625 26.1493 39.805 25.9099 39.62 25.694C39.5535 25.6168 39.5397 25.5026 39.5848 25.4035L39.9529 24.5921C40.1954 24.0578 39.9744 23.4329 39.4505 23.17C39.3809 23.1347 39.3076 23.1287 39.235 23.1095C39.2208 23.1056 39.2071 23.1009 39.1929 23.0979C38.9217 23.0378 38.6522 23.082 38.4192 23.2189C38.4183 23.2189 38.4179 23.2193 38.4174 23.2197C38.2553 23.315 38.1077 23.4381 38.0095 23.6154L37.5777 24.3947C37.525 24.4903 37.4254 24.5475 37.3238 24.5402C37.0401 24.5205 36.7544 24.5373 36.474 24.59C36.4174 24.6007 36.3595 24.5922 36.3058 24.5651C36.2646 24.5445 36.2286 24.5136 36.2015 24.4755L35.6823 23.7503C35.5797 23.6075 35.4427 23.4902 35.2861 23.4112C34.9398 23.2374 34.5232 23.2615 34.1992 23.4744C33.709 23.7966 33.5619 24.4424 33.8645 24.945L34.3241 25.7092C34.3803 25.8027 34.3794 25.9187 34.3211 26.0049C34.2421 26.122 34.1701 26.2453 34.1065 26.3714C34.0434 26.497 33.9876 26.6288 33.9405 26.7623C33.9061 26.8601 33.8138 26.9305 33.7053 26.9408L32.8175 27.0279C32.2339 27.0855 31.8035 27.5888 31.8373 28.1741C31.8596 28.5612 32.0888 28.9101 32.4356 29.0843C32.5918 29.1628 32.7678 29.2028 32.9436 29.1993L33.8354 29.1834C33.8822 29.1825 33.9286 29.1932 33.9697 29.2138C34.0228 29.2404 34.0645 29.2821 34.0899 29.3335C34.2148 29.5901 34.3719 29.8296 34.5571 30.0454C34.6236 30.1226 34.6374 30.2368 34.5919 30.336L34.2242 31.1473C33.9817 31.6816 34.2027 32.3061 34.7267 32.5694C34.7954 32.6042 34.8687 32.6102 34.94 32.6296C34.9549 32.6334 34.9699 32.6386 34.985 32.6421C35.2553 32.7017 35.5243 32.6575 35.757 32.5211C35.7579 32.5206 35.7592 32.5202 35.76 32.5198C35.9221 32.4241 36.0695 32.3014 36.1672 32.1241L36.5988 31.3448C36.6517 31.2492 36.7516 31.192 36.8534 31.1993C37.1365 31.219 37.4228 31.2022 37.703 31.1495C37.7596 31.1388 37.8175 31.1473 37.8708 31.1744C37.912 31.195 37.9484 31.2259 37.9755 31.264L38.4947 31.9892C38.5973 32.1321 38.7343 32.2493 38.8905 32.3278C39.2372 32.5021 39.6538 32.478 39.9779 32.2651C40.4681 31.9426 40.6149 31.2969 40.3127 30.7943ZM38.2178 27.963L37.8376 28.7191C37.7865 28.8208 37.6853 28.8873 37.572 28.8938L36.727 28.9431C36.6137 28.9496 36.5055 28.8951 36.4429 28.8003L35.9781 28.093C35.9159 27.9982 35.9087 27.8771 35.9597 27.7755L36.3398 27.0194C36.3905 26.9181 36.4918 26.8516 36.6055 26.8447L37.4504 26.7959C37.5637 26.7894 37.6719 26.8439 37.7346 26.9387L38.1993 27.6459C38.2616 27.7407 38.2685 27.8617 38.2178 27.963Z" fill="#10B981" fill-opacity="0.2"/>
<path d="M45.5884 46.5356C44.3838 43.4498 44.0762 41.3751 44.0105 40.812C43.9853 40.5961 44.0509 40.3876 44.195 40.2246C47.0174 37.0397 55.6885 25.6217 48.7849 12.3902C48.2914 11.4441 47.7335 10.5772 47.1465 9.74897C47.1023 9.68673 47.059 9.62406 47.0143 9.56281C46.7264 9.1649 46.4308 8.77914 46.1234 8.40847C46.0943 8.37281 46.0634 8.33901 46.0342 8.30379C45.1301 7.22711 44.1495 6.26461 43.1063 5.41104C42.9381 5.27247 42.7733 5.12995 42.6012 4.99651C42.3918 4.83518 42.1781 4.6837 41.9645 4.5309C41.6657 4.315 41.3632 4.10478 41.0534 3.90353C40.9118 3.81209 40.7693 3.7224 40.626 3.63447C40.2042 3.37306 39.7738 3.12587 39.3339 2.8917C39.2824 2.86425 39.2317 2.83592 39.1802 2.80923C37.1037 1.72226 34.841 0.928419 32.4358 0.473966C32.156 0.419497 31.8762 0.384278 31.596 0.339653C31.3562 0.302356 31.1194 0.256419 30.8769 0.226013C28.4841 -0.0889873 26.1136 -0.0705029 23.9059 0.255107C16.8876 1.28859 9.06008 7.07048 8.10917 14.9576C7.80194 17.5028 7.91908 19.4072 8.0337 20.6096C8.10873 21.445 7.97792 21.6961 7.49044 22.6319C7.266 23.0636 7.01422 23.5498 6.75194 24.157C6.23963 25.3452 5.91992 26.1675 5.50233 27.2449C5.32383 27.7058 5.12641 28.2143 4.88917 28.8155C4.40552 30.0273 4.63389 30.9788 4.91105 31.5632C5.62166 33.0642 7.25966 33.5831 8.45556 33.9615C8.64828 34.0226 8.83619 34.0816 8.99456 34.1375C9.00747 34.1431 9.01895 34.1469 9.03186 34.1529C8.68208 34.7782 8.59283 35.467 8.76837 36.2153C8.83236 36.4763 8.92544 36.7071 9.03919 36.9114C8.92325 37.4786 8.93747 38.3103 9.53903 39.2329C9.62697 39.3714 9.7218 39.4869 9.81662 39.5878C9.54505 40.9005 9.00047 44.1699 11.585 46.1378C12.8334 47.0927 14.5729 47.0742 15.9668 47.0717C16.1925 47.0695 16.4114 47.0677 16.6169 47.0717C17.933 47.0947 19.1423 47.075 20.1529 47.0587C20.7888 47.0489 21.3595 47.0408 21.7797 47.0411C21.8848 47.2862 22.0441 47.7397 22.2363 48.5504C22.7769 50.8088 23.0984 52.2961 23.2497 53.6835L23.4338 55.3711C23.4823 55.8187 23.9325 56.1062 24.359 55.9629L45.826 48.7442C46.1264 48.6429 46.2817 48.3113 46.1663 48.016L45.5884 46.5356ZM26.965 50.7148C26.7637 49.6987 26.5187 48.6526 26.2651 47.5913C25.7776 45.5357 25.0639 43.5605 23.1587 43.0297L23.0467 43.0018C22.9176 42.9735 22.703 42.9357 22.3979 42.9193C22.1413 42.9064 21.8495 42.9017 21.5191 42.9017C21.1028 42.9017 20.626 42.9095 20.0854 42.9181C19.1135 42.9331 17.9514 42.9525 16.6893 42.931C16.4524 42.9263 16.2005 42.9277 15.9388 42.9302C15.3797 42.9319 14.3356 42.9409 14.0975 42.8456C13.4602 42.3602 13.7967 40.7778 13.9069 40.2576L13.9395 40.1052C14.1158 39.2572 14.0266 38.4895 13.6662 37.8017L15.4033 36.5675C15.7255 36.3392 15.6685 35.8454 15.3029 35.696L13.3011 34.8785C13.3436 34.7335 13.3779 34.5872 13.4037 34.4395C13.5402 33.6907 13.9552 31.4121 12.0559 30.6981C11.834 30.6156 11.5276 30.5359 11.1805 30.4539C10.9397 30.3977 10.6643 30.3372 10.3883 30.2375C10.1725 30.1616 9.94164 30.0882 9.70517 30.0135C9.49659 29.947 9.21255 29.8573 8.96536 29.7664C9.11127 29.3922 9.24164 29.0562 9.36359 28.742C9.76183 27.7148 10.0656 26.9299 10.5539 25.7979C10.7694 25.2989 10.9792 24.8998 11.1641 24.5436C11.743 23.4318 12.3421 22.2813 12.1571 20.2275C12.0601 19.2071 11.9614 17.6013 12.2206 15.4536C12.8497 10.2372 18.3621 5.2565 24.5093 4.35186C29.8239 3.56786 40.1455 4.78345 45.1139 14.3061C50.7929 25.1915 43.4743 34.7934 41.0957 37.478C40.1722 38.5208 39.7353 39.9116 39.8976 41.2929C39.9783 41.9872 40.2349 43.6389 41 45.9981L28.5526 50.1834L26.965 50.7148Z" fill="#10B981" fill-opacity="0.2"/>
</g>
<defs>
<clipPath id="clip0_175_386">
<rect width="56" height="56" fill="white"/>
</clipPath>
</defs>
</svg>
